G75*
G70*
%OFA0B0*%
%FSLAX24Y24*%
%IPPOS*%
%LPD*%
%AMOC8*
5,1,8,0,0,1.08239X$1,22.5*
%
%ADD10R,0.0630X0.0630*%
%ADD11C,0.0600*%
%ADD12C,0.1300*%
%ADD13C,0.0700*%
%ADD14R,0.0315X0.0112*%
%ADD15R,0.0112X0.0315*%
%ADD16R,0.1240X0.1240*%
%ADD17R,0.0630X0.0630*%
%ADD18C,0.0100*%
%ADD19C,0.0278*%
D10*
G36*
X005594Y004304D02*
X005149Y003859D01*
X004704Y004304D01*
X005149Y004749D01*
X005594Y004304D01*
G37*
G36*
X004369Y005529D02*
X003924Y005084D01*
X003479Y005529D01*
X003924Y005974D01*
X004369Y005529D01*
G37*
G36*
X003919Y015907D02*
X004364Y015462D01*
X003919Y015017D01*
X003474Y015462D01*
X003919Y015907D01*
G37*
G36*
X005144Y017132D02*
X005589Y016687D01*
X005144Y016242D01*
X004699Y016687D01*
X005144Y017132D01*
G37*
D11*
X009091Y013454D03*
X010091Y013454D03*
X011091Y013454D03*
X011091Y007754D03*
X009091Y007754D03*
D12*
X007491Y010504D03*
X012691Y010504D03*
D13*
X011630Y019678D03*
X010630Y019678D03*
X009630Y019678D03*
X008630Y019678D03*
D14*
X009120Y011197D03*
X009120Y011000D03*
X009120Y010803D03*
X009120Y010606D03*
X009120Y010409D03*
X009120Y010212D03*
X009120Y010016D03*
X009120Y009819D03*
X011088Y009819D03*
X011088Y010016D03*
X011088Y010212D03*
X011088Y010409D03*
X011088Y010606D03*
X011088Y010803D03*
X011088Y011000D03*
X011088Y011197D03*
D15*
X010793Y011492D03*
X010596Y011492D03*
X010399Y011492D03*
X010202Y011492D03*
X010005Y011492D03*
X009809Y011492D03*
X009612Y011492D03*
X009415Y011492D03*
X009415Y009523D03*
X009612Y009523D03*
X009809Y009523D03*
X010005Y009523D03*
X010202Y009523D03*
X010399Y009523D03*
X010596Y009523D03*
X010793Y009523D03*
D16*
X010104Y010508D03*
D17*
X014812Y004950D03*
X013985Y003257D03*
X012253Y003257D03*
X010147Y003480D03*
X010147Y001748D03*
X007968Y003224D03*
X006236Y003224D03*
X003696Y007496D03*
X001964Y007496D03*
X001374Y010527D03*
X003106Y010527D03*
X003696Y013559D03*
X001964Y013559D03*
X006196Y017830D03*
X007929Y017830D03*
X009267Y018401D03*
X011000Y018401D03*
X012259Y017830D03*
X013992Y017830D03*
X014819Y016078D03*
X016551Y016078D03*
X016525Y013552D03*
X018257Y013552D03*
X018848Y010541D03*
X017115Y010541D03*
X016505Y007489D03*
X018237Y007489D03*
X016544Y004950D03*
D18*
X000650Y000650D02*
X000650Y010544D01*
X000665Y011074D01*
X000784Y012128D01*
X001020Y013163D01*
X001370Y014164D01*
X001830Y015120D01*
X002395Y016018D01*
X003056Y016848D01*
X003807Y017598D01*
X003874Y017652D01*
X004126Y017584D01*
X004402Y017584D01*
X004669Y017656D01*
X004909Y017794D01*
X005104Y017990D01*
X005243Y018229D01*
X005314Y018496D01*
X005314Y018686D01*
X005534Y018824D01*
X006490Y019284D01*
X007492Y019635D01*
X008156Y019786D01*
X008150Y019773D01*
X008150Y019582D01*
X008223Y019406D01*
X008358Y019271D01*
X008535Y019198D01*
X008726Y019198D01*
X008902Y019271D01*
X009037Y019406D01*
X009110Y019582D01*
X009110Y019773D01*
X009046Y019929D01*
X009223Y019949D01*
X009150Y019773D01*
X009150Y019582D01*
X009223Y019406D01*
X009358Y019271D01*
X009535Y019198D01*
X009542Y019198D01*
X009301Y018957D01*
X009255Y018846D01*
X008899Y018846D01*
X008822Y018770D01*
X008822Y018032D01*
X008899Y017956D01*
X009087Y017956D01*
X009087Y017610D01*
X008139Y016662D01*
X008139Y011945D01*
X008109Y011914D01*
X008109Y017385D01*
X008298Y017385D01*
X008374Y017462D01*
X008374Y018199D01*
X008298Y018275D01*
X007941Y018275D01*
X007895Y018386D01*
X007619Y018662D01*
X007258Y018812D01*
X006867Y018812D01*
X006507Y018662D01*
X006231Y018386D01*
X006146Y018183D01*
X006146Y018295D01*
X005862Y018295D01*
X005824Y018285D01*
X005789Y018265D01*
X005761Y018237D01*
X005245Y018237D01*
X005271Y018336D02*
X006210Y018336D01*
X006169Y018237D02*
X006146Y018237D01*
X006278Y018434D02*
X005298Y018434D01*
X005314Y018533D02*
X006377Y018533D01*
X006475Y018631D02*
X005314Y018631D01*
X005384Y018730D02*
X006669Y018730D01*
X006361Y019222D02*
X008475Y019222D01*
X008308Y019321D02*
X006594Y019321D01*
X006876Y019419D02*
X008218Y019419D01*
X008177Y019518D02*
X007157Y019518D01*
X007439Y019616D02*
X008150Y019616D01*
X008150Y019715D02*
X007842Y019715D01*
X008785Y019222D02*
X009475Y019222D01*
X009468Y019124D02*
X006157Y019124D01*
X005952Y019025D02*
X009369Y019025D01*
X009289Y018927D02*
X005748Y018927D01*
X005543Y018828D02*
X008881Y018828D01*
X008822Y018730D02*
X007456Y018730D01*
X007650Y018631D02*
X008822Y018631D01*
X008822Y018533D02*
X007748Y018533D01*
X007847Y018434D02*
X008822Y018434D01*
X008822Y018336D02*
X007916Y018336D01*
X008336Y018237D02*
X008822Y018237D01*
X008822Y018139D02*
X008374Y018139D01*
X008374Y018040D02*
X008822Y018040D01*
X009087Y017942D02*
X008374Y017942D01*
X008374Y017843D02*
X009087Y017843D01*
X009087Y017745D02*
X008374Y017745D01*
X008374Y017646D02*
X009087Y017646D01*
X009025Y017548D02*
X008374Y017548D01*
X008361Y017449D02*
X008927Y017449D01*
X008828Y017351D02*
X008109Y017351D01*
X008109Y017252D02*
X008730Y017252D01*
X008631Y017154D02*
X008109Y017154D01*
X008109Y017055D02*
X008533Y017055D01*
X008434Y016957D02*
X008109Y016957D01*
X008109Y016858D02*
X008336Y016858D01*
X008237Y016760D02*
X008109Y016760D01*
X008109Y016661D02*
X008139Y016661D01*
X008139Y016563D02*
X008109Y016563D01*
X008109Y016464D02*
X008139Y016464D01*
X008139Y016366D02*
X008109Y016366D01*
X008109Y016267D02*
X008139Y016267D01*
X008139Y016169D02*
X008109Y016169D01*
X008109Y016070D02*
X008139Y016070D01*
X008139Y015972D02*
X008109Y015972D01*
X008109Y015873D02*
X008139Y015873D01*
X008139Y015775D02*
X008109Y015775D01*
X008109Y015676D02*
X008139Y015676D01*
X008139Y015578D02*
X008109Y015578D01*
X008109Y015479D02*
X008139Y015479D01*
X008139Y015381D02*
X008109Y015381D01*
X008109Y015282D02*
X008139Y015282D01*
X008139Y015184D02*
X008109Y015184D01*
X008109Y015085D02*
X008139Y015085D01*
X008139Y014987D02*
X008109Y014987D01*
X008109Y014888D02*
X008139Y014888D01*
X008139Y014790D02*
X008109Y014790D01*
X008109Y014691D02*
X008139Y014691D01*
X008139Y014593D02*
X008109Y014593D01*
X008109Y014494D02*
X008139Y014494D01*
X008139Y014396D02*
X008109Y014396D01*
X008109Y014297D02*
X008139Y014297D01*
X008139Y014199D02*
X008109Y014199D01*
X008109Y014100D02*
X008139Y014100D01*
X008139Y014002D02*
X008109Y014002D01*
X008109Y013903D02*
X008139Y013903D01*
X008139Y013805D02*
X008109Y013805D01*
X008109Y013706D02*
X008139Y013706D01*
X008139Y013608D02*
X008109Y013608D01*
X008109Y013509D02*
X008139Y013509D01*
X008139Y013411D02*
X008109Y013411D01*
X008109Y013312D02*
X008139Y013312D01*
X008139Y013214D02*
X008109Y013214D01*
X008109Y013115D02*
X008139Y013115D01*
X008139Y013017D02*
X008109Y013017D01*
X008109Y012918D02*
X008139Y012918D01*
X008139Y012820D02*
X008109Y012820D01*
X008109Y012721D02*
X008139Y012721D01*
X008139Y012623D02*
X008109Y012623D01*
X008109Y012524D02*
X008139Y012524D01*
X008139Y012426D02*
X008109Y012426D01*
X008109Y012327D02*
X008139Y012327D01*
X008139Y012229D02*
X008109Y012229D01*
X008109Y012130D02*
X008139Y012130D01*
X008139Y012032D02*
X008109Y012032D01*
X008109Y011933D02*
X008127Y011933D01*
X008319Y011744D02*
X008319Y016587D01*
X009267Y017535D01*
X009267Y018401D01*
X009251Y018418D01*
X009308Y019321D02*
X008952Y019321D01*
X009043Y019419D02*
X009218Y019419D01*
X009177Y019518D02*
X009084Y019518D01*
X009110Y019616D02*
X009150Y019616D01*
X009150Y019715D02*
X009110Y019715D01*
X009094Y019813D02*
X009167Y019813D01*
X009208Y019912D02*
X009053Y019912D01*
X010725Y019198D02*
X010726Y019198D01*
X010902Y019271D01*
X011037Y019406D01*
X011110Y019582D01*
X011110Y019773D01*
X011040Y019943D01*
X011195Y019924D01*
X011167Y019869D01*
X011143Y019795D01*
X011132Y019728D01*
X011580Y019728D01*
X011580Y019628D01*
X011132Y019628D01*
X011143Y019560D01*
X011167Y019486D01*
X011203Y019416D01*
X011249Y019352D01*
X011305Y019296D01*
X011368Y019250D01*
X011438Y019214D01*
X011513Y019190D01*
X011580Y019179D01*
X011580Y019628D01*
X011680Y019628D01*
X011680Y019728D01*
X012129Y019728D01*
X012122Y019771D01*
X012890Y019581D01*
X013945Y019181D01*
X014828Y018718D01*
X014828Y018496D01*
X014900Y018229D01*
X015038Y017990D01*
X015234Y017794D01*
X015473Y017656D01*
X015740Y017584D01*
X016017Y017584D01*
X016280Y017655D01*
X016717Y017268D01*
X017465Y016424D01*
X018106Y015495D01*
X018630Y014496D01*
X019030Y013441D01*
X019300Y012346D01*
X019436Y011226D01*
X019453Y010662D01*
X019453Y000650D01*
X000650Y000650D01*
X000650Y000704D02*
X019453Y000704D01*
X019453Y000803D02*
X000650Y000803D01*
X000650Y000901D02*
X017767Y000901D01*
X017757Y000904D02*
X018024Y000832D01*
X018300Y000832D01*
X018567Y000904D01*
X018807Y001042D01*
X019002Y001238D01*
X019140Y001477D01*
X019212Y001744D01*
X019212Y002021D01*
X019140Y002288D01*
X019002Y002527D01*
X018807Y002722D01*
X018567Y002861D01*
X018300Y002932D01*
X018024Y002932D01*
X017757Y002861D01*
X017517Y002722D01*
X017322Y002527D01*
X017183Y002288D01*
X017112Y002021D01*
X017112Y001744D01*
X017183Y001477D01*
X017322Y001238D01*
X017517Y001042D01*
X017757Y000904D01*
X017591Y001000D02*
X002297Y001000D01*
X002307Y001002D02*
X002547Y001140D01*
X002742Y001336D01*
X002880Y001575D01*
X002952Y001842D01*
X002952Y002119D01*
X002880Y002386D01*
X002742Y002625D01*
X002547Y002821D01*
X002307Y002959D01*
X002040Y003031D01*
X001764Y003031D01*
X001497Y002959D01*
X001257Y002821D01*
X001062Y002625D01*
X000924Y002386D01*
X000852Y002119D01*
X000852Y001842D01*
X000924Y001575D01*
X001062Y001336D01*
X001257Y001140D01*
X001497Y001002D01*
X001764Y000931D01*
X002040Y000931D01*
X002307Y001002D01*
X002473Y001098D02*
X017461Y001098D01*
X017363Y001197D02*
X002603Y001197D01*
X002701Y001295D02*
X009770Y001295D01*
X009774Y001293D02*
X009812Y001283D01*
X010097Y001283D01*
X010097Y001632D01*
X010197Y001632D01*
X010197Y001283D01*
X010482Y001283D01*
X010520Y001293D01*
X010554Y001313D01*
X010582Y001341D01*
X010602Y001375D01*
X010612Y001413D01*
X010612Y001698D01*
X010500Y001698D01*
X010703Y001782D01*
X010979Y002058D01*
X011128Y002419D01*
X011128Y002809D01*
X010979Y003170D01*
X010703Y003446D01*
X010592Y003492D01*
X010592Y003849D01*
X010516Y003925D01*
X010327Y003925D01*
X010327Y008928D01*
X010019Y009236D01*
X010219Y009236D01*
X010219Y009059D01*
X010364Y008914D01*
X010469Y008809D01*
X010863Y008809D01*
X012076Y007595D01*
X012076Y003702D01*
X011884Y003702D01*
X011808Y003626D01*
X011808Y002888D01*
X011884Y002812D01*
X012241Y002812D01*
X012287Y002701D01*
X012563Y002425D01*
X012924Y002276D01*
X013315Y002276D01*
X013675Y002425D01*
X013951Y002701D01*
X014035Y002904D01*
X014035Y002792D01*
X014320Y002792D01*
X014358Y002802D01*
X014392Y002822D01*
X014420Y002850D01*
X014440Y002884D01*
X014450Y002922D01*
X014450Y003207D01*
X014101Y003207D01*
X014101Y003307D01*
X014450Y003307D01*
X014450Y003592D01*
X014440Y003630D01*
X014420Y003664D01*
X014392Y003692D01*
X014358Y003712D01*
X014320Y003722D01*
X014035Y003722D01*
X014035Y003610D01*
X013951Y003813D01*
X013675Y004089D01*
X013315Y004239D01*
X012924Y004239D01*
X012563Y004089D01*
X012436Y003962D01*
X012436Y007530D01*
X014572Y005395D01*
X014443Y005395D01*
X014367Y005319D01*
X014367Y004581D01*
X014443Y004505D01*
X014800Y004505D01*
X014846Y004394D01*
X015122Y004118D01*
X015483Y003969D01*
X015874Y003969D01*
X016234Y004118D01*
X016510Y004394D01*
X016594Y004597D01*
X016594Y004485D01*
X016879Y004485D01*
X016917Y004495D01*
X016952Y004515D01*
X016979Y004543D01*
X016999Y004577D01*
X017009Y004615D01*
X017009Y004900D01*
X016660Y004900D01*
X016660Y005000D01*
X017009Y005000D01*
X017009Y005285D01*
X016999Y005323D01*
X016979Y005357D01*
X016952Y005385D01*
X016917Y005405D01*
X016879Y005415D01*
X016594Y005415D01*
X016594Y005303D01*
X016510Y005506D01*
X016234Y005782D01*
X015874Y005931D01*
X015483Y005931D01*
X015122Y005782D01*
X014908Y005568D01*
X014890Y005586D01*
X013166Y007309D01*
X016060Y007309D01*
X016060Y007121D01*
X016136Y007044D01*
X016493Y007044D01*
X016539Y006933D01*
X016815Y006657D01*
X017176Y006508D01*
X017566Y006508D01*
X017927Y006657D01*
X018203Y006933D01*
X018287Y007136D01*
X018287Y007024D01*
X018572Y007024D01*
X018610Y007035D01*
X018644Y007054D01*
X018672Y007082D01*
X018692Y007117D01*
X018702Y007155D01*
X018702Y007439D01*
X018353Y007439D01*
X018353Y007539D01*
X018702Y007539D01*
X018702Y007824D01*
X018692Y007862D01*
X018672Y007896D01*
X018644Y007924D01*
X018610Y007944D01*
X018572Y007954D01*
X018287Y007954D01*
X018287Y007842D01*
X018203Y008045D01*
X017927Y008321D01*
X017566Y008471D01*
X017176Y008471D01*
X016815Y008321D01*
X016539Y008045D01*
X016493Y007934D01*
X016136Y007934D01*
X016060Y007858D01*
X016060Y007669D01*
X014499Y007669D01*
X016925Y010096D01*
X017103Y010096D01*
X017149Y009985D01*
X017426Y009708D01*
X017786Y009559D01*
X018177Y009559D01*
X018537Y009708D01*
X018814Y009985D01*
X018898Y010188D01*
X018898Y010076D01*
X019182Y010076D01*
X019220Y010086D01*
X019255Y010106D01*
X019283Y010133D01*
X019302Y010168D01*
X019313Y010206D01*
X019313Y010491D01*
X018963Y010491D01*
X018963Y010591D01*
X019313Y010591D01*
X019313Y010875D01*
X019302Y010913D01*
X019283Y010948D01*
X019255Y010976D01*
X019220Y010995D01*
X019182Y011006D01*
X018898Y011006D01*
X018898Y010894D01*
X018814Y011097D01*
X018537Y011373D01*
X018177Y011522D01*
X017786Y011522D01*
X017426Y011373D01*
X017149Y011097D01*
X017103Y010986D01*
X016747Y010986D01*
X016705Y010944D01*
X016705Y012850D01*
X016835Y012720D01*
X017196Y012571D01*
X017586Y012571D01*
X017947Y012720D01*
X018223Y012996D01*
X018307Y013199D01*
X018307Y013087D01*
X018592Y013087D01*
X018630Y013098D01*
X018664Y013117D01*
X018692Y013145D01*
X018712Y013180D01*
X018722Y013218D01*
X018722Y013502D01*
X018372Y013502D01*
X018372Y013602D01*
X018722Y013602D01*
X018722Y013887D01*
X018712Y013925D01*
X018692Y013959D01*
X018664Y013987D01*
X018630Y014007D01*
X018592Y014017D01*
X018307Y014017D01*
X018307Y013905D01*
X018223Y014108D01*
X017947Y014384D01*
X017586Y014534D01*
X017196Y014534D01*
X016835Y014384D01*
X016559Y014108D01*
X016513Y013997D01*
X016156Y013997D01*
X016117Y013959D01*
X016117Y014505D01*
X016625Y015013D01*
X016731Y015118D01*
X016731Y015633D01*
X016920Y015633D01*
X016996Y015710D01*
X016996Y016447D01*
X016920Y016523D01*
X016563Y016523D01*
X016517Y016634D01*
X016241Y016910D01*
X015880Y017060D01*
X015489Y017060D01*
X015129Y016910D01*
X014853Y016634D01*
X014769Y016431D01*
X014769Y016543D01*
X014484Y016543D01*
X014446Y016533D01*
X014411Y016513D01*
X014384Y016485D01*
X014364Y016451D01*
X014354Y016413D01*
X014354Y016128D01*
X014703Y016128D01*
X014703Y016028D01*
X014354Y016028D01*
X014354Y015744D01*
X014364Y015705D01*
X014384Y015671D01*
X014411Y015643D01*
X014446Y015624D01*
X014484Y015613D01*
X014769Y015613D01*
X014769Y015725D01*
X014853Y015522D01*
X015129Y015246D01*
X015489Y015097D01*
X015880Y015097D01*
X016241Y015246D01*
X016371Y015376D01*
X016371Y015267D01*
X015757Y014654D01*
X015757Y014648D01*
X015716Y014689D01*
X015617Y014730D01*
X015510Y014730D01*
X015411Y014689D01*
X015335Y014613D01*
X015294Y014515D01*
X015294Y014408D01*
X015335Y014309D01*
X015383Y014261D01*
X015383Y010599D01*
X014289Y009523D01*
X012764Y009523D01*
X012563Y009724D01*
X012846Y009724D01*
X013133Y009843D01*
X013352Y010062D01*
X013471Y010349D01*
X013471Y010659D01*
X013352Y010946D01*
X013133Y011166D01*
X012846Y011284D01*
X012536Y011284D01*
X012249Y011166D01*
X012030Y010946D01*
X012015Y010910D01*
X011976Y010949D01*
X011877Y010990D01*
X011770Y010990D01*
X011671Y010949D01*
X011595Y010873D01*
X011559Y010786D01*
X011396Y010786D01*
X011396Y010803D01*
X011396Y010820D01*
X011484Y010820D01*
X011590Y010925D01*
X011590Y011138D01*
X013158Y012706D01*
X014339Y012706D01*
X014890Y013257D01*
X014995Y013363D01*
X014995Y014614D01*
X014573Y015037D01*
X014573Y015105D01*
X014532Y015204D01*
X014456Y015280D01*
X014357Y015321D01*
X014250Y015321D01*
X014151Y015280D01*
X014075Y015204D01*
X014034Y015105D01*
X014034Y015024D01*
X014031Y015028D01*
X013925Y015133D01*
X013490Y015133D01*
X013438Y015185D01*
X013339Y015226D01*
X013232Y015226D01*
X013133Y015185D01*
X013131Y015183D01*
X013128Y015181D01*
X013079Y015133D01*
X011801Y015133D01*
X011157Y015794D01*
X011157Y016879D01*
X011205Y016927D01*
X011246Y017026D01*
X011246Y017133D01*
X011205Y017232D01*
X011203Y017234D01*
X011217Y017234D01*
X012086Y016363D01*
X012086Y016297D01*
X012127Y016198D01*
X012202Y016123D01*
X012301Y016082D01*
X012364Y016082D01*
X012713Y015726D01*
X012703Y015726D01*
X012605Y015686D01*
X011777Y016513D01*
X011777Y016581D01*
X011736Y016680D01*
X011661Y016756D01*
X011562Y016797D01*
X011455Y016797D01*
X011356Y016756D01*
X011280Y016680D01*
X011239Y016581D01*
X011239Y016474D01*
X011280Y016376D01*
X011356Y016300D01*
X011455Y016259D01*
X011523Y016259D01*
X012441Y015340D01*
X012489Y015288D01*
X012494Y015288D01*
X012497Y015285D01*
X012548Y015285D01*
X012604Y015229D01*
X012703Y015188D01*
X012810Y015188D01*
X012909Y015229D01*
X012984Y015305D01*
X013025Y015404D01*
X013025Y015407D01*
X013041Y015391D01*
X013041Y015390D01*
X013093Y015338D01*
X013145Y015286D01*
X013146Y015286D01*
X013146Y015285D01*
X013220Y015285D01*
X013294Y015284D01*
X013294Y015285D01*
X013572Y015285D01*
X013620Y015237D01*
X013719Y015196D01*
X013826Y015196D01*
X013924Y015237D01*
X014000Y015313D01*
X014041Y015411D01*
X014041Y015518D01*
X014029Y015549D01*
X014076Y015596D01*
X014173Y015830D01*
X014173Y016084D01*
X014076Y016318D01*
X013897Y016497D01*
X013663Y016594D01*
X013409Y016594D01*
X013175Y016497D01*
X012996Y016318D01*
X012899Y016084D01*
X012899Y016051D01*
X012624Y016331D01*
X012624Y016404D01*
X012583Y016503D01*
X012507Y016579D01*
X012408Y016620D01*
X012338Y016620D01*
X011472Y017488D01*
X011472Y017488D01*
X011419Y017541D01*
X011367Y017594D01*
X011366Y017594D01*
X011292Y017594D01*
X011217Y017594D01*
X010803Y017594D01*
X010759Y017638D01*
X010966Y017845D01*
X011050Y018048D01*
X011050Y017936D01*
X011334Y017936D01*
X011372Y017946D01*
X011407Y017966D01*
X011435Y017994D01*
X011454Y018028D01*
X011465Y018066D01*
X011465Y018351D01*
X011115Y018351D01*
X011115Y018451D01*
X011465Y018451D01*
X011465Y018736D01*
X011454Y018774D01*
X011435Y018808D01*
X011407Y018836D01*
X011372Y018856D01*
X011334Y018866D01*
X011050Y018866D01*
X011050Y018754D01*
X010966Y018957D01*
X010725Y019198D01*
X010785Y019222D02*
X011423Y019222D01*
X011580Y019222D02*
X011680Y019222D01*
X011680Y019179D02*
X011747Y019190D01*
X011822Y019214D01*
X011892Y019250D01*
X011956Y019296D01*
X012012Y019352D01*
X012058Y019416D01*
X012094Y019486D01*
X012118Y019560D01*
X012129Y019628D01*
X011680Y019628D01*
X011680Y019179D01*
X011680Y019321D02*
X011580Y019321D01*
X011580Y019419D02*
X011680Y019419D01*
X011680Y019518D02*
X011580Y019518D01*
X011580Y019616D02*
X011680Y019616D01*
X011680Y019715D02*
X012349Y019715D01*
X012127Y019616D02*
X012749Y019616D01*
X013058Y019518D02*
X012104Y019518D01*
X012060Y019419D02*
X013318Y019419D01*
X013577Y019321D02*
X011981Y019321D01*
X011838Y019222D02*
X013837Y019222D01*
X014055Y019124D02*
X010799Y019124D01*
X010898Y019025D02*
X014242Y019025D01*
X014430Y018927D02*
X010978Y018927D01*
X011019Y018828D02*
X011050Y018828D01*
X011415Y018828D02*
X014618Y018828D01*
X014805Y018730D02*
X013519Y018730D01*
X013682Y018662D02*
X013321Y018812D01*
X012930Y018812D01*
X012570Y018662D01*
X012294Y018386D01*
X012209Y018183D01*
X012209Y018295D01*
X011925Y018295D01*
X011887Y018285D01*
X011852Y018265D01*
X011824Y018237D01*
X011465Y018237D01*
X011465Y018139D02*
X011794Y018139D01*
X011794Y018165D02*
X011794Y017880D01*
X012144Y017880D01*
X012144Y017780D01*
X011794Y017780D01*
X011794Y017496D01*
X011805Y017457D01*
X011824Y017423D01*
X011852Y017395D01*
X011887Y017376D01*
X011925Y017365D01*
X012209Y017365D01*
X012209Y017477D01*
X012294Y017274D01*
X012570Y016998D01*
X012930Y016849D01*
X013321Y016849D01*
X013682Y016998D01*
X013925Y017242D01*
X014015Y017153D01*
X014015Y017085D01*
X014056Y016986D01*
X014131Y016910D01*
X014230Y016869D01*
X014337Y016869D01*
X014436Y016910D01*
X014512Y016986D01*
X014553Y017085D01*
X014553Y017192D01*
X014512Y017291D01*
X014436Y017366D01*
X014369Y017394D01*
X014437Y017462D01*
X014437Y018199D01*
X014361Y018275D01*
X014004Y018275D01*
X013958Y018386D01*
X013682Y018662D01*
X013713Y018631D02*
X014828Y018631D01*
X014828Y018533D02*
X013811Y018533D01*
X013910Y018434D02*
X014845Y018434D01*
X014871Y018336D02*
X013979Y018336D01*
X014399Y018237D02*
X014898Y018237D01*
X014952Y018139D02*
X014437Y018139D01*
X014437Y018040D02*
X015009Y018040D01*
X015086Y017942D02*
X014437Y017942D01*
X014437Y017843D02*
X015185Y017843D01*
X015319Y017745D02*
X014437Y017745D01*
X014437Y017646D02*
X015509Y017646D01*
X015478Y017055D02*
X014541Y017055D01*
X014553Y017154D02*
X016818Y017154D01*
X016731Y017252D02*
X014528Y017252D01*
X014452Y017351D02*
X016623Y017351D01*
X016512Y017449D02*
X014424Y017449D01*
X014437Y017548D02*
X016401Y017548D01*
X016290Y017646D02*
X016248Y017646D01*
X015891Y017055D02*
X016905Y017055D01*
X016993Y016957D02*
X016129Y016957D01*
X016293Y016858D02*
X017080Y016858D01*
X017167Y016760D02*
X016391Y016760D01*
X016490Y016661D02*
X017254Y016661D01*
X017342Y016563D02*
X016546Y016563D01*
X016979Y016464D02*
X017429Y016464D01*
X017505Y016366D02*
X016996Y016366D01*
X016996Y016267D02*
X017573Y016267D01*
X017641Y016169D02*
X016996Y016169D01*
X016996Y016070D02*
X017709Y016070D01*
X017777Y015972D02*
X016996Y015972D01*
X016996Y015873D02*
X017845Y015873D01*
X017913Y015775D02*
X016996Y015775D01*
X016962Y015676D02*
X017981Y015676D01*
X018049Y015578D02*
X016731Y015578D01*
X016731Y015479D02*
X018114Y015479D01*
X018166Y015381D02*
X016731Y015381D01*
X016731Y015282D02*
X018218Y015282D01*
X018269Y015184D02*
X016731Y015184D01*
X016698Y015085D02*
X018321Y015085D01*
X018373Y014987D02*
X016599Y014987D01*
X016501Y014888D02*
X018424Y014888D01*
X018476Y014790D02*
X016402Y014790D01*
X016304Y014691D02*
X018528Y014691D01*
X018579Y014593D02*
X016205Y014593D01*
X016117Y014494D02*
X017100Y014494D01*
X016862Y014396D02*
X016117Y014396D01*
X016117Y014297D02*
X016748Y014297D01*
X016649Y014199D02*
X016117Y014199D01*
X016117Y014100D02*
X016555Y014100D01*
X016515Y014002D02*
X016117Y014002D01*
X016525Y013552D02*
X016525Y010777D01*
X014619Y008870D01*
X012473Y008870D01*
X011331Y010012D01*
X011092Y010012D01*
X011088Y010016D01*
X011092Y010209D02*
X011469Y010209D01*
X012591Y009087D01*
X014481Y009087D01*
X015937Y010544D01*
X015937Y014579D01*
X016551Y015193D01*
X016551Y016078D01*
X016371Y015282D02*
X016276Y015282D01*
X016287Y015184D02*
X016089Y015184D01*
X016189Y015085D02*
X014573Y015085D01*
X014540Y015184D02*
X015280Y015184D01*
X015093Y015282D02*
X014450Y015282D01*
X014304Y015052D02*
X014815Y014540D01*
X014815Y013437D01*
X014264Y012886D01*
X013083Y012886D01*
X011410Y011213D01*
X011410Y011000D01*
X011088Y011000D01*
X011088Y011197D02*
X011075Y011210D01*
X011075Y011390D01*
X012807Y013122D01*
X014028Y013122D01*
X014579Y013674D01*
X014579Y014225D01*
X013851Y014953D01*
X013290Y014953D01*
X013286Y014957D01*
X013280Y014953D02*
X011725Y014953D01*
X010977Y015721D01*
X010977Y017079D01*
X011217Y016957D02*
X011493Y016957D01*
X011395Y017055D02*
X011246Y017055D01*
X011237Y017154D02*
X011297Y017154D01*
X011292Y017414D02*
X010603Y017414D01*
X009658Y017414D01*
X008536Y016292D01*
X008536Y013280D01*
X009353Y012463D01*
X009353Y012443D01*
X009126Y012217D01*
X009126Y011780D01*
X009415Y011492D01*
X009612Y011492D02*
X009612Y011771D01*
X009461Y011941D01*
X009809Y012007D02*
X009353Y012463D01*
X009448Y012623D02*
X011659Y012623D01*
X011561Y012524D02*
X011325Y012524D01*
X011326Y012524D02*
X011227Y012565D01*
X011120Y012565D01*
X011021Y012524D01*
X010946Y012448D01*
X010905Y012349D01*
X010905Y012281D01*
X010521Y011898D01*
X010423Y011799D01*
X010399Y011799D01*
X010323Y011799D01*
X010285Y011789D01*
X010268Y011779D01*
X009989Y011779D01*
X009989Y012082D01*
X009533Y012538D01*
X009427Y012643D01*
X009046Y013024D01*
X009176Y013024D01*
X009335Y013090D01*
X009455Y013211D01*
X009521Y013369D01*
X009521Y013540D01*
X009455Y013698D01*
X009335Y013819D01*
X009176Y013884D01*
X009005Y013884D01*
X008847Y013819D01*
X008726Y013698D01*
X008716Y013672D01*
X008716Y016217D01*
X009732Y017234D01*
X010030Y017234D01*
X010017Y017228D01*
X009942Y017153D01*
X009901Y017054D01*
X009901Y016947D01*
X009942Y016848D01*
X009990Y016800D01*
X009990Y015981D01*
X010095Y015876D01*
X011670Y014301D01*
X012589Y014301D01*
X012499Y014084D01*
X012499Y013830D01*
X012596Y013596D01*
X012775Y013417D01*
X013009Y013320D01*
X013263Y013320D01*
X013497Y013417D01*
X013536Y013456D01*
X013575Y013417D01*
X013809Y013320D01*
X013971Y013320D01*
X013953Y013302D01*
X012733Y013302D01*
X012385Y012954D01*
X012366Y012999D01*
X012291Y013075D01*
X012192Y013116D01*
X012085Y013116D01*
X011986Y013075D01*
X011910Y012999D01*
X011869Y012900D01*
X011869Y012832D01*
X011426Y012389D01*
X011402Y012448D01*
X011326Y012524D01*
X011411Y012426D02*
X011462Y012426D01*
X011758Y012721D02*
X009349Y012721D01*
X009427Y012643D02*
X009427Y012643D01*
X009533Y012538D02*
X009533Y012538D01*
X009546Y012524D02*
X011022Y012524D01*
X010936Y012426D02*
X009645Y012426D01*
X009743Y012327D02*
X010905Y012327D01*
X010852Y012229D02*
X009842Y012229D01*
X009940Y012130D02*
X010754Y012130D01*
X010655Y012032D02*
X009989Y012032D01*
X009989Y011933D02*
X010557Y011933D01*
X010458Y011835D02*
X009989Y011835D01*
X009809Y012007D02*
X009809Y011492D01*
X010399Y011492D02*
X010399Y011799D01*
X010399Y011492D01*
X010399Y011492D01*
X010399Y011539D02*
X010399Y011539D01*
X010399Y011638D02*
X010399Y011638D01*
X010399Y011736D02*
X010399Y011736D01*
X010596Y011718D02*
X010596Y011492D01*
X010793Y011492D02*
X010832Y011541D01*
X012138Y012847D01*
X011927Y013017D02*
X010200Y013017D01*
X010196Y013015D02*
X010264Y013037D01*
X010327Y013069D01*
X010384Y013111D01*
X010434Y013161D01*
X010476Y013218D01*
X010508Y013282D01*
X010530Y013349D01*
X010539Y013404D01*
X010141Y013404D01*
X010141Y013007D01*
X010196Y013015D01*
X010141Y013017D02*
X010041Y013017D01*
X010041Y013007D02*
X009986Y013015D01*
X009918Y013037D01*
X009855Y013069D01*
X009798Y013111D01*
X009748Y013161D01*
X009706Y013218D01*
X009674Y013282D01*
X009652Y013349D01*
X009643Y013404D01*
X010041Y013404D01*
X010141Y013404D01*
X010141Y013504D01*
X010539Y013504D01*
X010530Y013560D01*
X010508Y013627D01*
X010476Y013690D01*
X010434Y013747D01*
X010384Y013798D01*
X010327Y013839D01*
X010264Y013871D01*
X010196Y013893D01*
X010141Y013902D01*
X010141Y013504D01*
X010041Y013504D01*
X010041Y013404D01*
X010041Y013007D01*
X009982Y013017D02*
X009054Y013017D01*
X009152Y012918D02*
X011876Y012918D01*
X011856Y012820D02*
X009251Y012820D01*
X009360Y013115D02*
X009794Y013115D01*
X009710Y013214D02*
X009457Y013214D01*
X009497Y013312D02*
X009664Y013312D01*
X009521Y013411D02*
X010041Y013411D01*
X010041Y013504D02*
X009643Y013504D01*
X009652Y013560D01*
X009674Y013627D01*
X009706Y013690D01*
X009748Y013747D01*
X009798Y013798D01*
X009855Y013839D01*
X009918Y013871D01*
X009986Y013893D01*
X010041Y013902D01*
X010041Y013504D01*
X010041Y013509D02*
X010141Y013509D01*
X010141Y013411D02*
X010661Y013411D01*
X010661Y013369D02*
X010726Y013211D01*
X010847Y013090D01*
X011005Y013024D01*
X011176Y013024D01*
X011335Y013090D01*
X011455Y013211D01*
X011521Y013369D01*
X011521Y013540D01*
X011455Y013698D01*
X011335Y013819D01*
X011176Y013884D01*
X011005Y013884D01*
X010847Y013819D01*
X010726Y013698D01*
X010661Y013540D01*
X010661Y013369D01*
X010684Y013312D02*
X010518Y013312D01*
X010472Y013214D02*
X010725Y013214D01*
X010822Y013115D02*
X010388Y013115D01*
X010141Y013115D02*
X010041Y013115D01*
X010041Y013214D02*
X010141Y013214D01*
X010141Y013312D02*
X010041Y013312D01*
X010041Y013608D02*
X010141Y013608D01*
X010141Y013706D02*
X010041Y013706D01*
X010041Y013805D02*
X010141Y013805D01*
X010374Y013805D02*
X010833Y013805D01*
X010735Y013706D02*
X010464Y013706D01*
X010514Y013608D02*
X010689Y013608D01*
X010661Y013509D02*
X010538Y013509D01*
X009808Y013805D02*
X009349Y013805D01*
X009447Y013706D02*
X009718Y013706D01*
X009668Y013608D02*
X009493Y013608D01*
X009521Y013509D02*
X009644Y013509D01*
X008833Y013805D02*
X008716Y013805D01*
X008716Y013903D02*
X012499Y013903D01*
X012499Y014002D02*
X008716Y014002D01*
X008716Y014100D02*
X012506Y014100D01*
X012546Y014199D02*
X008716Y014199D01*
X008716Y014297D02*
X012587Y014297D01*
X012509Y013805D02*
X011349Y013805D01*
X011447Y013706D02*
X012550Y013706D01*
X012591Y013608D02*
X011493Y013608D01*
X011521Y013509D02*
X012683Y013509D01*
X012790Y013411D02*
X011521Y013411D01*
X011497Y013312D02*
X013963Y013312D01*
X013590Y013411D02*
X013481Y013411D01*
X013074Y012623D02*
X015383Y012623D01*
X015383Y012721D02*
X014354Y012721D01*
X014452Y012820D02*
X015383Y012820D01*
X015383Y012918D02*
X014551Y012918D01*
X014649Y013017D02*
X015383Y013017D01*
X015383Y013115D02*
X014748Y013115D01*
X014846Y013214D02*
X015383Y013214D01*
X015383Y013312D02*
X014945Y013312D01*
X014995Y013411D02*
X015383Y013411D01*
X015383Y013509D02*
X014995Y013509D01*
X014995Y013608D02*
X015383Y013608D01*
X015383Y013706D02*
X014995Y013706D01*
X014995Y013805D02*
X015383Y013805D01*
X015383Y013903D02*
X014995Y013903D01*
X014995Y014002D02*
X015383Y014002D01*
X015383Y014100D02*
X014995Y014100D01*
X014995Y014199D02*
X015383Y014199D01*
X015347Y014297D02*
X014995Y014297D01*
X014995Y014396D02*
X015299Y014396D01*
X015294Y014494D02*
X014995Y014494D01*
X014995Y014593D02*
X015327Y014593D01*
X015416Y014691D02*
X014919Y014691D01*
X014820Y014790D02*
X015893Y014790D01*
X015992Y014888D02*
X014722Y014888D01*
X014623Y014987D02*
X016090Y014987D01*
X015795Y014691D02*
X015711Y014691D01*
X015563Y014461D02*
X015563Y010524D01*
X014363Y009343D01*
X012689Y009343D01*
X011626Y010406D01*
X011092Y010406D01*
X011088Y010409D01*
X011088Y010212D02*
X011092Y010209D01*
X011111Y009819D02*
X011088Y009819D01*
X011111Y009819D02*
X013221Y007709D01*
X014284Y007709D01*
X017115Y010541D01*
X017129Y011047D02*
X016705Y011047D01*
X016705Y011145D02*
X017198Y011145D01*
X017297Y011244D02*
X016705Y011244D01*
X016705Y011342D02*
X017395Y011342D01*
X017590Y011441D02*
X016705Y011441D01*
X016705Y011539D02*
X019398Y011539D01*
X019410Y011441D02*
X018373Y011441D01*
X018568Y011342D02*
X019422Y011342D01*
X019434Y011244D02*
X018666Y011244D01*
X018765Y011145D02*
X019439Y011145D01*
X019442Y011047D02*
X018834Y011047D01*
X018875Y010948D02*
X018898Y010948D01*
X019282Y010948D02*
X019444Y010948D01*
X019447Y010850D02*
X019313Y010850D01*
X019313Y010751D02*
X019450Y010751D01*
X019453Y010653D02*
X019313Y010653D01*
X019453Y010554D02*
X018963Y010554D01*
X019313Y010456D02*
X019453Y010456D01*
X019453Y010357D02*
X019313Y010357D01*
X019313Y010259D02*
X019453Y010259D01*
X019453Y010160D02*
X019298Y010160D01*
X019453Y010062D02*
X018845Y010062D01*
X018886Y010160D02*
X018898Y010160D01*
X018792Y009963D02*
X019453Y009963D01*
X019453Y009865D02*
X018694Y009865D01*
X018595Y009766D02*
X019453Y009766D01*
X019453Y009668D02*
X018439Y009668D01*
X018201Y009569D02*
X019453Y009569D01*
X019453Y009471D02*
X016300Y009471D01*
X016398Y009569D02*
X017762Y009569D01*
X017524Y009668D02*
X016497Y009668D01*
X016595Y009766D02*
X017368Y009766D01*
X017269Y009865D02*
X016694Y009865D01*
X016792Y009963D02*
X017171Y009963D01*
X017118Y010062D02*
X016891Y010062D01*
X016201Y009372D02*
X019453Y009372D01*
X019453Y009274D02*
X016103Y009274D01*
X016004Y009175D02*
X019453Y009175D01*
X019453Y009077D02*
X015906Y009077D01*
X015807Y008978D02*
X019453Y008978D01*
X019453Y008880D02*
X015709Y008880D01*
X015610Y008781D02*
X019453Y008781D01*
X019453Y008683D02*
X015512Y008683D01*
X015413Y008584D02*
X019453Y008584D01*
X019453Y008486D02*
X015315Y008486D01*
X015216Y008387D02*
X016974Y008387D01*
X016782Y008289D02*
X015118Y008289D01*
X015019Y008190D02*
X016684Y008190D01*
X016585Y008092D02*
X014921Y008092D01*
X014822Y007993D02*
X016518Y007993D01*
X016097Y007895D02*
X014724Y007895D01*
X014625Y007796D02*
X016060Y007796D01*
X016060Y007698D02*
X014527Y007698D01*
X013665Y006811D02*
X016661Y006811D01*
X016563Y006910D02*
X013566Y006910D01*
X013468Y007008D02*
X016508Y007008D01*
X016760Y006713D02*
X013763Y006713D01*
X013862Y006614D02*
X016920Y006614D01*
X017157Y006516D02*
X013960Y006516D01*
X014059Y006417D02*
X019453Y006417D01*
X019453Y006319D02*
X014157Y006319D01*
X014256Y006220D02*
X019453Y006220D01*
X019453Y006122D02*
X014354Y006122D01*
X014453Y006023D02*
X019453Y006023D01*
X019453Y005925D02*
X015890Y005925D01*
X016128Y005826D02*
X019453Y005826D01*
X019453Y005728D02*
X016289Y005728D01*
X016387Y005629D02*
X019453Y005629D01*
X019453Y005531D02*
X016486Y005531D01*
X016541Y005432D02*
X019453Y005432D01*
X019453Y005334D02*
X016993Y005334D01*
X017009Y005235D02*
X019453Y005235D01*
X019453Y005137D02*
X017009Y005137D01*
X017009Y005038D02*
X019453Y005038D01*
X019453Y004940D02*
X016660Y004940D01*
X016594Y004546D02*
X016573Y004546D01*
X016532Y004447D02*
X019453Y004447D01*
X019453Y004349D02*
X016465Y004349D01*
X016367Y004250D02*
X019453Y004250D01*
X019453Y004152D02*
X016268Y004152D01*
X016078Y004053D02*
X019453Y004053D01*
X019453Y003955D02*
X013810Y003955D01*
X013711Y004053D02*
X015279Y004053D01*
X015089Y004152D02*
X013524Y004152D01*
X013908Y003856D02*
X019453Y003856D01*
X019453Y003758D02*
X013974Y003758D01*
X014015Y003659D02*
X014035Y003659D01*
X014423Y003659D02*
X019453Y003659D01*
X019453Y003561D02*
X014450Y003561D01*
X014450Y003462D02*
X019453Y003462D01*
X019453Y003364D02*
X014450Y003364D01*
X014450Y003167D02*
X019453Y003167D01*
X019453Y003265D02*
X014101Y003265D01*
X014450Y003068D02*
X019453Y003068D01*
X019453Y002970D02*
X014450Y002970D01*
X014433Y002871D02*
X017795Y002871D01*
X017604Y002773D02*
X013981Y002773D01*
X014022Y002871D02*
X014035Y002871D01*
X013924Y002674D02*
X017469Y002674D01*
X017370Y002576D02*
X013826Y002576D01*
X013727Y002477D02*
X017293Y002477D01*
X017236Y002379D02*
X013563Y002379D01*
X013325Y002280D02*
X017181Y002280D01*
X017155Y002182D02*
X011030Y002182D01*
X011071Y002280D02*
X012913Y002280D01*
X012675Y002379D02*
X011112Y002379D01*
X011128Y002477D02*
X012511Y002477D01*
X012413Y002576D02*
X011128Y002576D01*
X011128Y002674D02*
X012314Y002674D01*
X012258Y002773D02*
X011128Y002773D01*
X011103Y002871D02*
X011825Y002871D01*
X011808Y002970D02*
X011062Y002970D01*
X011021Y003068D02*
X011808Y003068D01*
X011808Y003167D02*
X010980Y003167D01*
X010884Y003265D02*
X011808Y003265D01*
X011808Y003364D02*
X010785Y003364D01*
X010664Y003462D02*
X011808Y003462D01*
X011808Y003561D02*
X010592Y003561D01*
X010592Y003659D02*
X011841Y003659D01*
X012076Y003758D02*
X010592Y003758D01*
X010584Y003856D02*
X012076Y003856D01*
X012076Y003955D02*
X010327Y003955D01*
X010327Y004053D02*
X012076Y004053D01*
X012076Y004152D02*
X010327Y004152D01*
X010327Y004250D02*
X012076Y004250D01*
X012076Y004349D02*
X010327Y004349D01*
X010327Y004447D02*
X012076Y004447D01*
X012076Y004546D02*
X010327Y004546D01*
X010327Y004644D02*
X012076Y004644D01*
X012076Y004743D02*
X010327Y004743D01*
X010327Y004841D02*
X012076Y004841D01*
X012076Y004940D02*
X010327Y004940D01*
X010327Y005038D02*
X012076Y005038D01*
X012076Y005137D02*
X010327Y005137D01*
X010327Y005235D02*
X012076Y005235D01*
X012076Y005334D02*
X010327Y005334D01*
X010327Y005432D02*
X012076Y005432D01*
X012076Y005531D02*
X010327Y005531D01*
X010327Y005629D02*
X012076Y005629D01*
X012076Y005728D02*
X010327Y005728D01*
X010327Y005826D02*
X012076Y005826D01*
X012076Y005925D02*
X010327Y005925D01*
X010327Y006023D02*
X012076Y006023D01*
X012076Y006122D02*
X010327Y006122D01*
X010327Y006220D02*
X012076Y006220D01*
X012076Y006319D02*
X010327Y006319D01*
X010327Y006417D02*
X012076Y006417D01*
X012076Y006516D02*
X010327Y006516D01*
X010327Y006614D02*
X012076Y006614D01*
X012076Y006713D02*
X010327Y006713D01*
X010327Y006811D02*
X012076Y006811D01*
X012076Y006910D02*
X010327Y006910D01*
X010327Y007008D02*
X012076Y007008D01*
X012076Y007107D02*
X010327Y007107D01*
X010327Y007205D02*
X012076Y007205D01*
X012076Y007304D02*
X010327Y007304D01*
X010327Y007402D02*
X010835Y007402D01*
X010847Y007390D02*
X011005Y007324D01*
X011176Y007324D01*
X011335Y007390D01*
X011455Y007511D01*
X011521Y007669D01*
X011521Y007840D01*
X011455Y007998D01*
X011335Y008119D01*
X011176Y008184D01*
X011005Y008184D01*
X010847Y008119D01*
X010726Y007998D01*
X010661Y007840D01*
X010661Y007669D01*
X010726Y007511D01*
X010847Y007390D01*
X010737Y007501D02*
X010327Y007501D01*
X010327Y007599D02*
X010690Y007599D01*
X010661Y007698D02*
X010327Y007698D01*
X010327Y007796D02*
X010661Y007796D01*
X010684Y007895D02*
X010327Y007895D01*
X010327Y007993D02*
X010724Y007993D01*
X010820Y008092D02*
X010327Y008092D01*
X010327Y008190D02*
X011481Y008190D01*
X011383Y008289D02*
X010327Y008289D01*
X010327Y008387D02*
X011284Y008387D01*
X011186Y008486D02*
X010327Y008486D01*
X010327Y008584D02*
X011087Y008584D01*
X010989Y008683D02*
X010327Y008683D01*
X010327Y008781D02*
X010890Y008781D01*
X010937Y008989D02*
X012256Y007670D01*
X012256Y003260D01*
X012253Y003257D01*
X012436Y004053D02*
X012527Y004053D01*
X012436Y004152D02*
X012714Y004152D01*
X012436Y004250D02*
X014990Y004250D01*
X014892Y004349D02*
X012436Y004349D01*
X012436Y004447D02*
X014824Y004447D01*
X014403Y004546D02*
X012436Y004546D01*
X012436Y004644D02*
X014367Y004644D01*
X014367Y004743D02*
X012436Y004743D01*
X012436Y004841D02*
X014367Y004841D01*
X014367Y004940D02*
X012436Y004940D01*
X012436Y005038D02*
X014367Y005038D01*
X014367Y005137D02*
X012436Y005137D01*
X012436Y005235D02*
X014367Y005235D01*
X014382Y005334D02*
X012436Y005334D01*
X012436Y005432D02*
X014535Y005432D01*
X014436Y005531D02*
X012436Y005531D01*
X012436Y005629D02*
X014338Y005629D01*
X014239Y005728D02*
X012436Y005728D01*
X012436Y005826D02*
X014141Y005826D01*
X014042Y005925D02*
X012436Y005925D01*
X012436Y006023D02*
X013944Y006023D01*
X013845Y006122D02*
X012436Y006122D01*
X012436Y006220D02*
X013747Y006220D01*
X013648Y006319D02*
X012436Y006319D01*
X012436Y006417D02*
X013550Y006417D01*
X013451Y006516D02*
X012436Y006516D01*
X012436Y006614D02*
X013353Y006614D01*
X013254Y006713D02*
X012436Y006713D01*
X012436Y006811D02*
X013156Y006811D01*
X013057Y006910D02*
X012436Y006910D01*
X012436Y007008D02*
X012959Y007008D01*
X012860Y007107D02*
X012436Y007107D01*
X012436Y007205D02*
X012762Y007205D01*
X012663Y007304D02*
X012436Y007304D01*
X012436Y007402D02*
X012565Y007402D01*
X012466Y007501D02*
X012436Y007501D01*
X012076Y007501D02*
X011445Y007501D01*
X011492Y007599D02*
X012072Y007599D01*
X011974Y007698D02*
X011521Y007698D01*
X011521Y007796D02*
X011875Y007796D01*
X011777Y007895D02*
X011498Y007895D01*
X011457Y007993D02*
X011678Y007993D01*
X011580Y008092D02*
X011362Y008092D01*
X011347Y007402D02*
X012076Y007402D01*
X013047Y007489D02*
X011016Y009520D01*
X010796Y009520D01*
X010793Y009523D01*
X010596Y009523D02*
X010596Y009225D01*
X010996Y009225D01*
X014815Y005406D01*
X014815Y004953D01*
X014812Y004950D01*
X014847Y005629D02*
X014969Y005629D01*
X015068Y005728D02*
X014748Y005728D01*
X014650Y005826D02*
X015229Y005826D01*
X015467Y005925D02*
X014551Y005925D01*
X013369Y007107D02*
X016074Y007107D01*
X016060Y007205D02*
X013271Y007205D01*
X013172Y007304D02*
X016060Y007304D01*
X016505Y007489D02*
X013047Y007489D01*
X012718Y009569D02*
X014336Y009569D01*
X014436Y009668D02*
X012619Y009668D01*
X012947Y009766D02*
X014536Y009766D01*
X014636Y009865D02*
X013154Y009865D01*
X013253Y009963D02*
X014736Y009963D01*
X014837Y010062D02*
X013351Y010062D01*
X013393Y010160D02*
X014937Y010160D01*
X015037Y010259D02*
X013433Y010259D01*
X013471Y010357D02*
X015137Y010357D01*
X015237Y010456D02*
X013471Y010456D01*
X013471Y010554D02*
X015337Y010554D01*
X015383Y010653D02*
X013471Y010653D01*
X013433Y010751D02*
X015383Y010751D01*
X015383Y010850D02*
X013392Y010850D01*
X013350Y010948D02*
X015383Y010948D01*
X015383Y011047D02*
X013252Y011047D01*
X013153Y011145D02*
X015383Y011145D01*
X015383Y011244D02*
X012944Y011244D01*
X012438Y011244D02*
X011695Y011244D01*
X011794Y011342D02*
X015383Y011342D01*
X015383Y011441D02*
X011892Y011441D01*
X011991Y011539D02*
X015383Y011539D01*
X015383Y011638D02*
X012089Y011638D01*
X012188Y011736D02*
X015383Y011736D01*
X015383Y011835D02*
X012286Y011835D01*
X012385Y011933D02*
X015383Y011933D01*
X015383Y012032D02*
X012483Y012032D01*
X012582Y012130D02*
X015383Y012130D01*
X015383Y012229D02*
X012680Y012229D01*
X012779Y012327D02*
X015383Y012327D01*
X015383Y012426D02*
X012877Y012426D01*
X012976Y012524D02*
X015383Y012524D01*
X016705Y012524D02*
X019256Y012524D01*
X019280Y012426D02*
X016705Y012426D01*
X016705Y012327D02*
X019302Y012327D01*
X019314Y012229D02*
X016705Y012229D01*
X016705Y012130D02*
X019326Y012130D01*
X019338Y012032D02*
X016705Y012032D01*
X016705Y011933D02*
X019350Y011933D01*
X019362Y011835D02*
X016705Y011835D01*
X016705Y011736D02*
X019374Y011736D01*
X019386Y011638D02*
X016705Y011638D01*
X016705Y010948D02*
X016709Y010948D01*
X016705Y012623D02*
X017071Y012623D01*
X016834Y012721D02*
X016705Y012721D01*
X016705Y012820D02*
X016736Y012820D01*
X017711Y012623D02*
X019232Y012623D01*
X019208Y012721D02*
X017948Y012721D01*
X018046Y012820D02*
X019183Y012820D01*
X019159Y012918D02*
X018145Y012918D01*
X018231Y013017D02*
X019135Y013017D01*
X019111Y013115D02*
X018660Y013115D01*
X018721Y013214D02*
X019086Y013214D01*
X019062Y013312D02*
X018722Y013312D01*
X018722Y013411D02*
X019038Y013411D01*
X019004Y013509D02*
X018372Y013509D01*
X018722Y013608D02*
X018967Y013608D01*
X018930Y013706D02*
X018722Y013706D01*
X018722Y013805D02*
X018892Y013805D01*
X018855Y013903D02*
X018718Y013903D01*
X018639Y014002D02*
X018818Y014002D01*
X018780Y014100D02*
X018226Y014100D01*
X018267Y014002D02*
X018307Y014002D01*
X018133Y014199D02*
X018743Y014199D01*
X018706Y014297D02*
X018034Y014297D01*
X017920Y014396D02*
X018668Y014396D01*
X018631Y014494D02*
X017682Y014494D01*
X018272Y013115D02*
X018307Y013115D01*
X014994Y015381D02*
X014028Y015381D01*
X014041Y015479D02*
X014896Y015479D01*
X014830Y015578D02*
X014057Y015578D01*
X014109Y015676D02*
X014381Y015676D01*
X014354Y015775D02*
X014150Y015775D01*
X014173Y015873D02*
X014354Y015873D01*
X014354Y015972D02*
X014173Y015972D01*
X014173Y016070D02*
X014703Y016070D01*
X014354Y016169D02*
X014138Y016169D01*
X014097Y016267D02*
X014354Y016267D01*
X014354Y016366D02*
X014028Y016366D01*
X013930Y016464D02*
X014371Y016464D01*
X014769Y016464D02*
X014782Y016464D01*
X014823Y016563D02*
X013738Y016563D01*
X013333Y016563D02*
X012523Y016563D01*
X012599Y016464D02*
X013142Y016464D01*
X013044Y016366D02*
X012624Y016366D01*
X012687Y016267D02*
X012975Y016267D01*
X012934Y016169D02*
X012783Y016169D01*
X012880Y016070D02*
X012899Y016070D01*
X012665Y015775D02*
X012516Y015775D01*
X012569Y015873D02*
X012418Y015873D01*
X012472Y015972D02*
X012319Y015972D01*
X012376Y016070D02*
X012221Y016070D01*
X012156Y016169D02*
X012122Y016169D01*
X012098Y016267D02*
X012024Y016267D01*
X012083Y016366D02*
X011925Y016366D01*
X011984Y016464D02*
X011827Y016464D01*
X011777Y016563D02*
X011886Y016563D01*
X011788Y016661D02*
X011744Y016661D01*
X011690Y016760D02*
X011652Y016760D01*
X011592Y016858D02*
X011157Y016858D01*
X011157Y016760D02*
X011365Y016760D01*
X011272Y016661D02*
X011157Y016661D01*
X011157Y016563D02*
X011239Y016563D01*
X011243Y016464D02*
X011157Y016464D01*
X011157Y016366D02*
X011290Y016366D01*
X011157Y016267D02*
X011435Y016267D01*
X011613Y016169D02*
X011157Y016169D01*
X011157Y016070D02*
X011712Y016070D01*
X011810Y015972D02*
X011157Y015972D01*
X011157Y015873D02*
X011909Y015873D01*
X012007Y015775D02*
X011176Y015775D01*
X011272Y015676D02*
X012106Y015676D01*
X012204Y015578D02*
X011368Y015578D01*
X011464Y015479D02*
X012303Y015479D01*
X012401Y015381D02*
X011560Y015381D01*
X011656Y015282D02*
X012551Y015282D01*
X012571Y015465D02*
X011508Y016528D01*
X012002Y016957D02*
X012670Y016957D01*
X012513Y017055D02*
X011904Y017055D01*
X011805Y017154D02*
X012414Y017154D01*
X012316Y017252D02*
X011707Y017252D01*
X011609Y017351D02*
X012262Y017351D01*
X012221Y017449D02*
X012209Y017449D01*
X012144Y017843D02*
X010963Y017843D01*
X011005Y017942D02*
X011050Y017942D01*
X011046Y018040D02*
X011050Y018040D01*
X011355Y017942D02*
X011794Y017942D01*
X011794Y018040D02*
X011458Y018040D01*
X011465Y018336D02*
X012273Y018336D01*
X012232Y018237D02*
X012209Y018237D01*
X012341Y018434D02*
X011115Y018434D01*
X011465Y018533D02*
X012440Y018533D01*
X012538Y018631D02*
X011465Y018631D01*
X011465Y018730D02*
X012732Y018730D01*
X011824Y018237D02*
X011805Y018203D01*
X011794Y018165D01*
X011794Y017745D02*
X010865Y017745D01*
X010766Y017646D02*
X011794Y017646D01*
X011794Y017548D02*
X011412Y017548D01*
X011366Y017594D02*
X011366Y017594D01*
X011217Y017594D02*
X011217Y017594D01*
X011292Y017414D02*
X012404Y016299D01*
X012355Y016351D01*
X012404Y016299D02*
X013221Y015465D01*
X013772Y015465D01*
X013574Y015282D02*
X012962Y015282D01*
X013016Y015381D02*
X013051Y015381D01*
X013132Y015184D02*
X011752Y015184D01*
X011279Y014691D02*
X008716Y014691D01*
X008716Y014593D02*
X011378Y014593D01*
X011476Y014494D02*
X008716Y014494D01*
X008716Y014396D02*
X011575Y014396D01*
X011744Y014481D02*
X010170Y016056D01*
X010170Y017000D01*
X009937Y016858D02*
X009357Y016858D01*
X009455Y016957D02*
X009901Y016957D01*
X009901Y017055D02*
X009554Y017055D01*
X009652Y017154D02*
X009942Y017154D01*
X009990Y016760D02*
X009258Y016760D01*
X009160Y016661D02*
X009990Y016661D01*
X009990Y016563D02*
X009061Y016563D01*
X008963Y016464D02*
X009990Y016464D01*
X009990Y016366D02*
X008864Y016366D01*
X008766Y016267D02*
X009990Y016267D01*
X009990Y016169D02*
X008716Y016169D01*
X008716Y016070D02*
X009990Y016070D01*
X009999Y015972D02*
X008716Y015972D01*
X008716Y015873D02*
X010097Y015873D01*
X010196Y015775D02*
X008716Y015775D01*
X008716Y015676D02*
X010294Y015676D01*
X010393Y015578D02*
X008716Y015578D01*
X008716Y015479D02*
X010491Y015479D01*
X010590Y015381D02*
X008716Y015381D01*
X008716Y015282D02*
X010688Y015282D01*
X010787Y015184D02*
X008716Y015184D01*
X008716Y015085D02*
X010885Y015085D01*
X010984Y014987D02*
X008716Y014987D01*
X008716Y014888D02*
X011082Y014888D01*
X011181Y014790D02*
X008716Y014790D01*
X007749Y014790D02*
X004864Y014790D01*
X004763Y014888D02*
X007749Y014888D01*
X007749Y014987D02*
X004663Y014987D01*
X004727Y015093D02*
X004554Y015093D01*
X005480Y014188D01*
X005482Y014188D01*
X005533Y014136D01*
X005585Y014085D01*
X005585Y014083D01*
X005586Y014082D01*
X005586Y014009D01*
X005587Y013936D01*
X005585Y013934D01*
X005567Y011326D01*
X006829Y010064D01*
X006711Y010349D01*
X006711Y010659D01*
X006830Y010946D01*
X007049Y011166D01*
X007336Y011284D01*
X007646Y011284D01*
X007836Y011206D01*
X007749Y011293D01*
X007749Y017128D01*
X007619Y016998D01*
X007258Y016849D01*
X006867Y016849D01*
X006507Y016998D01*
X006231Y017274D01*
X006146Y017477D01*
X006146Y017365D01*
X005862Y017365D01*
X005824Y017376D01*
X005789Y017395D01*
X005761Y017423D01*
X005742Y017457D01*
X005731Y017496D01*
X005731Y017780D01*
X006081Y017780D01*
X006081Y017880D01*
X005731Y017880D01*
X005731Y018165D01*
X005742Y018203D01*
X005761Y018237D01*
X005731Y018139D02*
X005190Y018139D01*
X005134Y018040D02*
X005731Y018040D01*
X005731Y017942D02*
X005056Y017942D01*
X004958Y017843D02*
X006081Y017843D01*
X005731Y017745D02*
X004823Y017745D01*
X004633Y017646D02*
X005731Y017646D01*
X005731Y017548D02*
X003756Y017548D01*
X003658Y017449D02*
X005747Y017449D01*
X006146Y017449D02*
X006158Y017449D01*
X006199Y017351D02*
X003559Y017351D01*
X003461Y017252D02*
X005052Y017252D01*
X004851Y017051D01*
X004930Y016972D01*
X004727Y017056D01*
X004336Y017056D01*
X003976Y016906D01*
X003700Y016630D01*
X003550Y016269D01*
X003550Y015879D01*
X003596Y015768D01*
X003344Y015516D01*
X003344Y015408D01*
X003865Y014886D01*
X003973Y014886D01*
X004110Y015023D01*
X005225Y013933D01*
X005207Y011371D01*
X003873Y012705D01*
X003873Y013114D01*
X004065Y013114D01*
X004141Y013190D01*
X004141Y013927D01*
X004065Y014004D01*
X003708Y014004D01*
X003662Y014115D01*
X003386Y014391D01*
X003026Y014540D01*
X002635Y014540D01*
X002274Y014391D01*
X001998Y014115D01*
X001914Y013912D01*
X001914Y014024D01*
X001629Y014024D01*
X001591Y014013D01*
X001557Y013994D01*
X001529Y013966D01*
X001509Y013932D01*
X001499Y013893D01*
X001499Y013609D01*
X001849Y013609D01*
X001849Y013509D01*
X001141Y013509D01*
X001106Y013411D02*
X001499Y013411D01*
X001499Y013509D02*
X001499Y013224D01*
X001509Y013186D01*
X001529Y013152D01*
X001557Y013124D01*
X001591Y013104D01*
X001629Y013094D01*
X001914Y013094D01*
X001914Y013206D01*
X001998Y013003D01*
X002274Y012727D01*
X002635Y012577D01*
X003026Y012577D01*
X003386Y012727D01*
X003513Y012854D01*
X003513Y012556D01*
X003619Y012450D01*
X005362Y010707D01*
X003551Y010707D01*
X003551Y010896D01*
X003475Y010972D01*
X003118Y010972D01*
X003072Y011083D01*
X002796Y011359D01*
X002435Y011509D01*
X002045Y011509D01*
X001684Y011359D01*
X001408Y011083D01*
X001324Y010880D01*
X001324Y010992D01*
X001039Y010992D01*
X001001Y010982D01*
X000967Y010962D01*
X000939Y010934D01*
X000919Y010900D01*
X000909Y010862D01*
X000909Y010577D01*
X001258Y010577D01*
X001258Y010477D01*
X000909Y010477D01*
X000909Y010192D01*
X000919Y010154D01*
X000939Y010120D01*
X000967Y010092D01*
X001001Y010072D01*
X001039Y010062D01*
X001324Y010062D01*
X001324Y010174D01*
X001408Y009971D01*
X001684Y009695D01*
X002045Y009546D01*
X002435Y009546D01*
X002796Y009695D01*
X003072Y009971D01*
X003118Y010082D01*
X003475Y010082D01*
X003551Y010158D01*
X003551Y010347D01*
X005407Y010347D01*
X006631Y009124D01*
X008256Y009124D01*
X008361Y009229D01*
X008837Y009704D01*
X008908Y009633D01*
X008946Y009633D01*
X008946Y009339D01*
X007283Y007676D01*
X004141Y007676D01*
X004141Y007864D01*
X004065Y007941D01*
X003708Y007941D01*
X003662Y008052D01*
X003386Y008328D01*
X003026Y008477D01*
X002635Y008477D01*
X002274Y008328D01*
X001998Y008052D01*
X001914Y007849D01*
X001914Y007961D01*
X001629Y007961D01*
X001591Y007950D01*
X001557Y007931D01*
X001529Y007903D01*
X001509Y007869D01*
X001499Y007830D01*
X001499Y007546D01*
X001849Y007546D01*
X001849Y007446D01*
X001499Y007446D01*
X001499Y007161D01*
X001509Y007123D01*
X001529Y007089D01*
X001557Y007061D01*
X001591Y007041D01*
X001629Y007031D01*
X001914Y007031D01*
X001914Y007143D01*
X001998Y006940D01*
X002274Y006664D01*
X002635Y006514D01*
X003026Y006514D01*
X003386Y006664D01*
X003662Y006940D01*
X003708Y007051D01*
X004065Y007051D01*
X004141Y007127D01*
X004141Y007316D01*
X007238Y007316D01*
X006453Y006531D01*
X004671Y006531D01*
X004566Y006425D01*
X004112Y005971D01*
X003978Y006105D01*
X003870Y006105D01*
X003349Y005583D01*
X003349Y005476D01*
X003601Y005223D01*
X003555Y005112D01*
X003555Y004722D01*
X003705Y004361D01*
X003981Y004085D01*
X004341Y003935D01*
X004732Y003935D01*
X004935Y004020D01*
X004856Y003940D01*
X005057Y003739D01*
X005091Y003719D01*
X005129Y003709D01*
X005169Y003709D01*
X005207Y003719D01*
X005241Y003739D01*
X005442Y003940D01*
X005195Y004188D01*
X005266Y004258D01*
X005513Y004011D01*
X005715Y004212D01*
X005734Y004247D01*
X005744Y004285D01*
X005744Y004324D01*
X005734Y004362D01*
X005715Y004397D01*
X005513Y004598D01*
X005434Y004519D01*
X005518Y004722D01*
X005518Y005112D01*
X005369Y005473D01*
X005093Y005749D01*
X004732Y005898D01*
X004548Y005898D01*
X004820Y006171D01*
X006603Y006171D01*
X007788Y007356D01*
X007788Y003926D01*
X007658Y004056D01*
X007297Y004206D01*
X006907Y004206D01*
X006546Y004056D01*
X006270Y003780D01*
X006186Y003577D01*
X006186Y003689D01*
X005901Y003689D01*
X005863Y003679D01*
X005829Y003659D01*
X000650Y003659D01*
X000650Y003561D02*
X005771Y003561D01*
X005771Y003559D02*
X005771Y003274D01*
X006120Y003274D01*
X006120Y003174D01*
X005771Y003174D01*
X005771Y002889D01*
X005781Y002851D01*
X005801Y002817D01*
X005829Y002789D01*
X005863Y002769D01*
X005901Y002759D01*
X006186Y002759D01*
X006186Y002871D01*
X006270Y002668D01*
X006546Y002392D01*
X006907Y002243D01*
X007297Y002243D01*
X007658Y002392D01*
X007934Y002668D01*
X007980Y002779D01*
X008337Y002779D01*
X008413Y002855D01*
X008413Y003593D01*
X008337Y003669D01*
X008148Y003669D01*
X008148Y007460D01*
X009686Y008999D01*
X009717Y009029D01*
X009741Y009005D01*
X009967Y008779D01*
X009967Y003925D01*
X009778Y003925D01*
X009702Y003849D01*
X009702Y003492D01*
X009591Y003446D01*
X009315Y003170D01*
X009165Y002809D01*
X009165Y002419D01*
X009315Y002058D01*
X009591Y001782D01*
X009794Y001698D01*
X009682Y001698D01*
X009682Y001413D01*
X009692Y001375D01*
X009712Y001341D01*
X009740Y001313D01*
X009774Y001293D01*
X009687Y001394D02*
X002775Y001394D01*
X002832Y001492D02*
X009682Y001492D01*
X009682Y001591D02*
X002884Y001591D01*
X002911Y001689D02*
X009682Y001689D01*
X009585Y001788D02*
X002937Y001788D01*
X002952Y001886D02*
X009486Y001886D01*
X009388Y001985D02*
X002952Y001985D01*
X002952Y002083D02*
X009304Y002083D01*
X009263Y002182D02*
X002935Y002182D01*
X002909Y002280D02*
X006816Y002280D01*
X006578Y002379D02*
X002882Y002379D01*
X002828Y002477D02*
X006461Y002477D01*
X006362Y002576D02*
X002771Y002576D01*
X002693Y002674D02*
X006267Y002674D01*
X006227Y002773D02*
X006186Y002773D01*
X005857Y002773D02*
X002595Y002773D01*
X002460Y002871D02*
X005776Y002871D01*
X005771Y002970D02*
X002268Y002970D01*
X001536Y002970D02*
X000650Y002970D01*
X000650Y003068D02*
X005771Y003068D01*
X005771Y003167D02*
X000650Y003167D01*
X000650Y003265D02*
X006120Y003265D01*
X005771Y003364D02*
X000650Y003364D01*
X000650Y003462D02*
X005771Y003462D01*
X005771Y003559D02*
X005781Y003597D01*
X005801Y003631D01*
X005829Y003659D01*
X006186Y003659D02*
X006220Y003659D01*
X006261Y003758D02*
X005260Y003758D01*
X005358Y003856D02*
X006346Y003856D01*
X006445Y003955D02*
X005428Y003955D01*
X005471Y004053D02*
X005330Y004053D01*
X005373Y004152D02*
X005231Y004152D01*
X005258Y004250D02*
X005274Y004250D01*
X005555Y004053D02*
X006543Y004053D01*
X006777Y004152D02*
X005654Y004152D01*
X005735Y004250D02*
X007788Y004250D01*
X007788Y004152D02*
X007427Y004152D01*
X007661Y004053D02*
X007788Y004053D01*
X007788Y003955D02*
X007759Y003955D01*
X008148Y003955D02*
X009967Y003955D01*
X009967Y004053D02*
X008148Y004053D01*
X008148Y004152D02*
X009967Y004152D01*
X009967Y004250D02*
X008148Y004250D01*
X008148Y004349D02*
X009967Y004349D01*
X009967Y004447D02*
X008148Y004447D01*
X008148Y004546D02*
X009967Y004546D01*
X009967Y004644D02*
X008148Y004644D01*
X008148Y004743D02*
X009967Y004743D01*
X009967Y004841D02*
X008148Y004841D01*
X008148Y004940D02*
X009967Y004940D01*
X009967Y005038D02*
X008148Y005038D01*
X008148Y005137D02*
X009967Y005137D01*
X009967Y005235D02*
X008148Y005235D01*
X008148Y005334D02*
X009967Y005334D01*
X009967Y005432D02*
X008148Y005432D01*
X008148Y005531D02*
X009967Y005531D01*
X009967Y005629D02*
X008148Y005629D01*
X008148Y005728D02*
X009967Y005728D01*
X009967Y005826D02*
X008148Y005826D01*
X008148Y005925D02*
X009967Y005925D01*
X009967Y006023D02*
X008148Y006023D01*
X008148Y006122D02*
X009967Y006122D01*
X009967Y006220D02*
X008148Y006220D01*
X008148Y006319D02*
X009967Y006319D01*
X009967Y006417D02*
X008148Y006417D01*
X008148Y006516D02*
X009967Y006516D01*
X009967Y006614D02*
X008148Y006614D01*
X008148Y006713D02*
X009967Y006713D01*
X009967Y006811D02*
X008148Y006811D01*
X008148Y006910D02*
X009967Y006910D01*
X009967Y007008D02*
X008148Y007008D01*
X008148Y007107D02*
X009967Y007107D01*
X009967Y007205D02*
X008148Y007205D01*
X008148Y007304D02*
X009967Y007304D01*
X009967Y007402D02*
X009372Y007402D01*
X009384Y007411D02*
X009434Y007461D01*
X009476Y007518D01*
X009508Y007582D01*
X009530Y007649D01*
X009539Y007704D01*
X009141Y007704D01*
X009141Y007307D01*
X009196Y007315D01*
X009264Y007337D01*
X009327Y007369D01*
X009384Y007411D01*
X009463Y007501D02*
X009967Y007501D01*
X009967Y007599D02*
X009514Y007599D01*
X009538Y007698D02*
X009967Y007698D01*
X009967Y007796D02*
X009141Y007796D01*
X009141Y007804D02*
X009539Y007804D01*
X009530Y007860D01*
X009508Y007927D01*
X009476Y007990D01*
X009434Y008047D01*
X009384Y008098D01*
X009327Y008139D01*
X009264Y008171D01*
X009196Y008193D01*
X009141Y008202D01*
X009141Y007804D01*
X009141Y007704D01*
X009041Y007704D01*
X009041Y007307D01*
X008986Y007315D01*
X008918Y007337D01*
X008855Y007369D01*
X008798Y007411D01*
X008748Y007461D01*
X008706Y007518D01*
X008674Y007582D01*
X008652Y007649D01*
X008643Y007704D01*
X009041Y007704D01*
X009041Y007804D01*
X008643Y007804D01*
X008652Y007860D01*
X008674Y007927D01*
X008706Y007990D01*
X008748Y008047D01*
X008798Y008098D01*
X008855Y008139D01*
X008918Y008171D01*
X008986Y008193D01*
X009041Y008202D01*
X009041Y007804D01*
X009141Y007804D01*
X009141Y007895D02*
X009041Y007895D01*
X009041Y007993D02*
X009141Y007993D01*
X009141Y008092D02*
X009041Y008092D01*
X009041Y008190D02*
X009141Y008190D01*
X009206Y008190D02*
X009967Y008190D01*
X009967Y008092D02*
X009390Y008092D01*
X009474Y007993D02*
X009967Y007993D01*
X009967Y007895D02*
X009519Y007895D01*
X009141Y007698D02*
X009041Y007698D01*
X009041Y007796D02*
X008484Y007796D01*
X008582Y007895D02*
X008663Y007895D01*
X008681Y007993D02*
X008708Y007993D01*
X008779Y008092D02*
X008792Y008092D01*
X008878Y008190D02*
X008976Y008190D01*
X008976Y008289D02*
X009967Y008289D01*
X009967Y008387D02*
X009075Y008387D01*
X009173Y008486D02*
X009967Y008486D01*
X009967Y008584D02*
X009272Y008584D01*
X009370Y008683D02*
X009967Y008683D01*
X009965Y008781D02*
X009469Y008781D01*
X009567Y008880D02*
X009867Y008880D01*
X009768Y008978D02*
X009666Y008978D01*
X009612Y009179D02*
X009612Y009523D01*
X009422Y009517D02*
X009415Y009523D01*
X009415Y009238D01*
X006528Y006351D01*
X004746Y006351D01*
X003924Y005529D01*
X003589Y005235D02*
X000650Y005235D01*
X000650Y005137D02*
X003565Y005137D01*
X003555Y005038D02*
X000650Y005038D01*
X000650Y004940D02*
X003555Y004940D01*
X003555Y004841D02*
X000650Y004841D01*
X000650Y004743D02*
X003555Y004743D01*
X003587Y004644D02*
X000650Y004644D01*
X000650Y004546D02*
X003628Y004546D01*
X003669Y004447D02*
X000650Y004447D01*
X000650Y004349D02*
X003717Y004349D01*
X003815Y004250D02*
X000650Y004250D01*
X000650Y004152D02*
X003914Y004152D01*
X004057Y004053D02*
X000650Y004053D01*
X000650Y003955D02*
X004295Y003955D01*
X004778Y003955D02*
X004870Y003955D01*
X004940Y003856D02*
X000650Y003856D01*
X000650Y003758D02*
X005038Y003758D01*
X005738Y004349D02*
X007788Y004349D01*
X007788Y004447D02*
X005664Y004447D01*
X005565Y004546D02*
X007788Y004546D01*
X007788Y004644D02*
X005486Y004644D01*
X005461Y004546D02*
X005445Y004546D01*
X005518Y004743D02*
X007788Y004743D01*
X007788Y004841D02*
X005518Y004841D01*
X005518Y004940D02*
X007788Y004940D01*
X007788Y005038D02*
X005518Y005038D01*
X005508Y005137D02*
X007788Y005137D01*
X007788Y005235D02*
X005467Y005235D01*
X005426Y005334D02*
X007788Y005334D01*
X007788Y005432D02*
X005386Y005432D01*
X005311Y005531D02*
X007788Y005531D01*
X007788Y005629D02*
X005212Y005629D01*
X005114Y005728D02*
X007788Y005728D01*
X007788Y005826D02*
X004906Y005826D01*
X004672Y006023D02*
X007788Y006023D01*
X007788Y005925D02*
X004574Y005925D01*
X004771Y006122D02*
X007788Y006122D01*
X007788Y006220D02*
X006652Y006220D01*
X006750Y006319D02*
X007788Y006319D01*
X007788Y006417D02*
X006849Y006417D01*
X006947Y006516D02*
X007788Y006516D01*
X007788Y006614D02*
X007046Y006614D01*
X007144Y006713D02*
X007788Y006713D01*
X007788Y006811D02*
X007243Y006811D01*
X007341Y006910D02*
X007788Y006910D01*
X007788Y007008D02*
X007440Y007008D01*
X007538Y007107D02*
X007788Y007107D01*
X007788Y007205D02*
X007637Y007205D01*
X007735Y007304D02*
X007788Y007304D01*
X007968Y007535D02*
X009612Y009179D01*
X009815Y009185D02*
X009815Y009517D01*
X009809Y009523D01*
X009815Y009185D02*
X010147Y008854D01*
X010147Y003480D01*
X009702Y003561D02*
X008413Y003561D01*
X008413Y003462D02*
X009630Y003462D01*
X009509Y003364D02*
X008413Y003364D01*
X008413Y003265D02*
X009410Y003265D01*
X009313Y003167D02*
X008413Y003167D01*
X008413Y003068D02*
X009273Y003068D01*
X009232Y002970D02*
X008413Y002970D01*
X008413Y002871D02*
X009191Y002871D01*
X009165Y002773D02*
X007977Y002773D01*
X007937Y002674D02*
X009165Y002674D01*
X009165Y002576D02*
X007842Y002576D01*
X007743Y002477D02*
X009165Y002477D01*
X009182Y002379D02*
X007626Y002379D01*
X007388Y002280D02*
X009223Y002280D01*
X010097Y001591D02*
X010197Y001591D01*
X010197Y001492D02*
X010097Y001492D01*
X010097Y001394D02*
X010197Y001394D01*
X010197Y001295D02*
X010097Y001295D01*
X010524Y001295D02*
X017288Y001295D01*
X017232Y001394D02*
X010607Y001394D01*
X010612Y001492D02*
X017179Y001492D01*
X017153Y001591D02*
X010612Y001591D01*
X010612Y001689D02*
X017127Y001689D01*
X017112Y001788D02*
X010709Y001788D01*
X010807Y001886D02*
X017112Y001886D01*
X017112Y001985D02*
X010906Y001985D01*
X010989Y002083D02*
X017129Y002083D01*
X018528Y002871D02*
X019453Y002871D01*
X019453Y002773D02*
X018720Y002773D01*
X018855Y002674D02*
X019453Y002674D01*
X019453Y002576D02*
X018953Y002576D01*
X019031Y002477D02*
X019453Y002477D01*
X019453Y002379D02*
X019088Y002379D01*
X019142Y002280D02*
X019453Y002280D01*
X019453Y002182D02*
X019169Y002182D01*
X019195Y002083D02*
X019453Y002083D01*
X019453Y001985D02*
X019212Y001985D01*
X019212Y001886D02*
X019453Y001886D01*
X019453Y001788D02*
X019212Y001788D01*
X019197Y001689D02*
X019453Y001689D01*
X019453Y001591D02*
X019171Y001591D01*
X019144Y001492D02*
X019453Y001492D01*
X019453Y001394D02*
X019092Y001394D01*
X019035Y001295D02*
X019453Y001295D01*
X019453Y001197D02*
X018961Y001197D01*
X018863Y001098D02*
X019453Y001098D01*
X019453Y001000D02*
X018733Y001000D01*
X018557Y000901D02*
X019453Y000901D01*
X019453Y004546D02*
X016981Y004546D01*
X017009Y004644D02*
X019453Y004644D01*
X019453Y004743D02*
X017009Y004743D01*
X017009Y004841D02*
X019453Y004841D01*
X019453Y006516D02*
X017585Y006516D01*
X017823Y006614D02*
X019453Y006614D01*
X019453Y006713D02*
X017983Y006713D01*
X018081Y006811D02*
X019453Y006811D01*
X019453Y006910D02*
X018180Y006910D01*
X018234Y007008D02*
X019453Y007008D01*
X019453Y007107D02*
X018686Y007107D01*
X018702Y007205D02*
X019453Y007205D01*
X019453Y007304D02*
X018702Y007304D01*
X018702Y007402D02*
X019453Y007402D01*
X019453Y007501D02*
X018353Y007501D01*
X018702Y007599D02*
X019453Y007599D01*
X019453Y007698D02*
X018702Y007698D01*
X018702Y007796D02*
X019453Y007796D01*
X019453Y007895D02*
X018673Y007895D01*
X018287Y007895D02*
X018266Y007895D01*
X018225Y007993D02*
X019453Y007993D01*
X019453Y008092D02*
X018157Y008092D01*
X018059Y008190D02*
X019453Y008190D01*
X019453Y008289D02*
X017960Y008289D01*
X017769Y008387D02*
X019453Y008387D01*
X018287Y007107D02*
X018275Y007107D01*
X016594Y005334D02*
X016582Y005334D01*
X011708Y010606D02*
X011823Y010721D01*
X011708Y010606D02*
X011088Y010606D01*
X011088Y010803D02*
X011088Y010803D01*
X011396Y010803D01*
X011088Y010803D01*
X011514Y010850D02*
X011585Y010850D01*
X011590Y010948D02*
X011670Y010948D01*
X011590Y011047D02*
X012130Y011047D01*
X012229Y011145D02*
X011597Y011145D01*
X011976Y010948D02*
X012032Y010948D01*
X011174Y012296D02*
X010596Y011718D01*
X009120Y011197D02*
X009005Y011197D01*
X008772Y011430D01*
X008690Y010606D02*
X007929Y011367D01*
X007929Y017830D01*
X007749Y017055D02*
X007675Y017055D01*
X007749Y016957D02*
X007518Y016957D01*
X007749Y016858D02*
X007280Y016858D01*
X006845Y016858D02*
X005630Y016858D01*
X005710Y016779D02*
X005508Y016980D01*
X005261Y016733D01*
X005190Y016803D01*
X005437Y017051D01*
X005236Y017252D01*
X006253Y017252D01*
X006351Y017154D02*
X005335Y017154D01*
X005236Y017252D02*
X005202Y017272D01*
X005164Y017282D01*
X005124Y017282D01*
X005086Y017272D01*
X005052Y017252D01*
X004954Y017154D02*
X003362Y017154D01*
X003264Y017055D02*
X004335Y017055D01*
X004097Y016957D02*
X003165Y016957D01*
X003067Y016858D02*
X003928Y016858D01*
X003829Y016760D02*
X002986Y016760D01*
X002908Y016661D02*
X003731Y016661D01*
X003672Y016563D02*
X002829Y016563D01*
X002750Y016464D02*
X003631Y016464D01*
X003590Y016366D02*
X002672Y016366D01*
X002593Y016267D02*
X003550Y016267D01*
X003550Y016169D02*
X002515Y016169D01*
X002436Y016070D02*
X003550Y016070D01*
X003550Y015972D02*
X002366Y015972D01*
X002304Y015873D02*
X003552Y015873D01*
X003593Y015775D02*
X002242Y015775D01*
X002180Y015676D02*
X003504Y015676D01*
X003406Y015578D02*
X002118Y015578D01*
X002056Y015479D02*
X003344Y015479D01*
X003371Y015381D02*
X001994Y015381D01*
X001932Y015282D02*
X003469Y015282D01*
X003568Y015184D02*
X001870Y015184D01*
X001814Y015085D02*
X003666Y015085D01*
X003765Y014987D02*
X001766Y014987D01*
X001719Y014888D02*
X003863Y014888D01*
X003975Y014888D02*
X004248Y014888D01*
X004148Y014987D02*
X004073Y014987D01*
X004349Y014790D02*
X001671Y014790D01*
X001624Y014691D02*
X004450Y014691D01*
X004551Y014593D02*
X001577Y014593D01*
X001529Y014494D02*
X002524Y014494D01*
X002286Y014396D02*
X001482Y014396D01*
X001434Y014297D02*
X002181Y014297D01*
X002082Y014199D02*
X001387Y014199D01*
X001348Y014100D02*
X001992Y014100D01*
X001951Y014002D02*
X001914Y014002D01*
X001571Y014002D02*
X001313Y014002D01*
X001279Y013903D02*
X001502Y013903D01*
X001499Y013805D02*
X001244Y013805D01*
X001210Y013706D02*
X001499Y013706D01*
X001499Y013509D02*
X001849Y013509D01*
X001849Y013608D02*
X001175Y013608D01*
X001072Y013312D02*
X001499Y013312D01*
X001502Y013214D02*
X001038Y013214D01*
X001009Y013115D02*
X001572Y013115D01*
X001914Y013115D02*
X001952Y013115D01*
X001992Y013017D02*
X000986Y013017D01*
X000964Y012918D02*
X002083Y012918D01*
X002181Y012820D02*
X000941Y012820D01*
X000919Y012721D02*
X002288Y012721D01*
X002525Y012623D02*
X000896Y012623D01*
X000874Y012524D02*
X003545Y012524D01*
X003513Y012623D02*
X003135Y012623D01*
X003373Y012721D02*
X003513Y012721D01*
X003513Y012820D02*
X003479Y012820D01*
X003693Y012630D02*
X003693Y013556D01*
X003696Y013559D01*
X004141Y013608D02*
X005223Y013608D01*
X005224Y013706D02*
X004141Y013706D01*
X004141Y013805D02*
X005224Y013805D01*
X005225Y013903D02*
X004141Y013903D01*
X004067Y014002D02*
X005155Y014002D01*
X005054Y014100D02*
X003668Y014100D01*
X003578Y014199D02*
X004954Y014199D01*
X004853Y014297D02*
X003480Y014297D01*
X003374Y014396D02*
X004752Y014396D01*
X004651Y014494D02*
X003137Y014494D01*
X003919Y015462D02*
X005406Y014008D01*
X005386Y011252D01*
X006941Y009697D01*
X007985Y009697D01*
X008697Y010409D01*
X009120Y010409D01*
X009120Y010212D02*
X008795Y010212D01*
X008083Y009500D01*
X006823Y009500D01*
X003693Y012630D01*
X003873Y012721D02*
X005217Y012721D01*
X005216Y012623D02*
X003956Y012623D01*
X004054Y012524D02*
X005215Y012524D01*
X005215Y012426D02*
X004153Y012426D01*
X004251Y012327D02*
X005214Y012327D01*
X005213Y012229D02*
X004350Y012229D01*
X004448Y012130D02*
X005212Y012130D01*
X005212Y012032D02*
X004547Y012032D01*
X004645Y011933D02*
X005211Y011933D01*
X005210Y011835D02*
X004744Y011835D01*
X004842Y011736D02*
X005210Y011736D01*
X005209Y011638D02*
X004941Y011638D01*
X005039Y011539D02*
X005208Y011539D01*
X005208Y011441D02*
X005138Y011441D01*
X004825Y011244D02*
X002911Y011244D01*
X002813Y011342D02*
X004727Y011342D01*
X004628Y011441D02*
X002599Y011441D01*
X003010Y011145D02*
X004924Y011145D01*
X005022Y011047D02*
X003087Y011047D01*
X003499Y010948D02*
X005121Y010948D01*
X005219Y010850D02*
X003551Y010850D01*
X003551Y010751D02*
X005318Y010751D01*
X005481Y010527D02*
X003106Y010527D01*
X003109Y010062D02*
X005692Y010062D01*
X005594Y010160D02*
X003551Y010160D01*
X003551Y010259D02*
X005495Y010259D01*
X005481Y010527D02*
X006705Y009304D01*
X008181Y009304D01*
X008894Y010016D01*
X009120Y010016D01*
X009120Y009819D02*
X009126Y009812D01*
X009126Y009264D01*
X007358Y007496D01*
X003696Y007496D01*
X004141Y007304D02*
X007226Y007304D01*
X007128Y007205D02*
X004141Y007205D01*
X004121Y007107D02*
X007029Y007107D01*
X006931Y007008D02*
X003691Y007008D01*
X003632Y006910D02*
X006832Y006910D01*
X006734Y006811D02*
X003534Y006811D01*
X003435Y006713D02*
X006635Y006713D01*
X006537Y006614D02*
X003267Y006614D01*
X003029Y006516D02*
X004656Y006516D01*
X004557Y006417D02*
X000650Y006417D01*
X000650Y006319D02*
X004459Y006319D01*
X004360Y006220D02*
X000650Y006220D01*
X000650Y006122D02*
X004262Y006122D01*
X004163Y006023D02*
X004060Y006023D01*
X003789Y006023D02*
X000650Y006023D01*
X000650Y005925D02*
X003690Y005925D01*
X003592Y005826D02*
X000650Y005826D01*
X000650Y005728D02*
X003493Y005728D01*
X003395Y005629D02*
X000650Y005629D01*
X000650Y005531D02*
X003349Y005531D01*
X003392Y005432D02*
X000650Y005432D01*
X000650Y005334D02*
X003491Y005334D01*
X002632Y006516D02*
X000650Y006516D01*
X000650Y006614D02*
X002394Y006614D01*
X002225Y006713D02*
X000650Y006713D01*
X000650Y006811D02*
X002127Y006811D01*
X002028Y006910D02*
X000650Y006910D01*
X000650Y007008D02*
X001970Y007008D01*
X001929Y007107D02*
X001914Y007107D01*
X001519Y007107D02*
X000650Y007107D01*
X000650Y007205D02*
X001499Y007205D01*
X001499Y007304D02*
X000650Y007304D01*
X000650Y007402D02*
X001499Y007402D01*
X001499Y007599D02*
X000650Y007599D01*
X000650Y007501D02*
X001849Y007501D01*
X001914Y007895D02*
X001933Y007895D01*
X001974Y007993D02*
X000650Y007993D01*
X000650Y007895D02*
X001525Y007895D01*
X001499Y007796D02*
X000650Y007796D01*
X000650Y007698D02*
X001499Y007698D01*
X002038Y008092D02*
X000650Y008092D01*
X000650Y008190D02*
X002137Y008190D01*
X002235Y008289D02*
X000650Y008289D01*
X000650Y008387D02*
X002418Y008387D01*
X003243Y008387D02*
X007995Y008387D01*
X008093Y008486D02*
X000650Y008486D01*
X000650Y008584D02*
X008192Y008584D01*
X008290Y008683D02*
X000650Y008683D01*
X000650Y008781D02*
X008389Y008781D01*
X008487Y008880D02*
X000650Y008880D01*
X000650Y008978D02*
X008586Y008978D01*
X008684Y009077D02*
X000650Y009077D01*
X000650Y009175D02*
X006579Y009175D01*
X006480Y009274D02*
X000650Y009274D01*
X000650Y009372D02*
X006382Y009372D01*
X006283Y009471D02*
X000650Y009471D01*
X000650Y009569D02*
X001988Y009569D01*
X001750Y009668D02*
X000650Y009668D01*
X000650Y009766D02*
X001613Y009766D01*
X001514Y009865D02*
X000650Y009865D01*
X000650Y009963D02*
X001416Y009963D01*
X001370Y010062D02*
X000650Y010062D01*
X000650Y010160D02*
X000917Y010160D01*
X000909Y010259D02*
X000650Y010259D01*
X000650Y010357D02*
X000909Y010357D01*
X000909Y010456D02*
X000650Y010456D01*
X000650Y010554D02*
X001258Y010554D01*
X000909Y010653D02*
X000653Y010653D01*
X000656Y010751D02*
X000909Y010751D01*
X000909Y010850D02*
X000659Y010850D01*
X000661Y010948D02*
X000953Y010948D01*
X000664Y011047D02*
X001393Y011047D01*
X001352Y010948D02*
X001324Y010948D01*
X001470Y011145D02*
X000673Y011145D01*
X000684Y011244D02*
X001568Y011244D01*
X001667Y011342D02*
X000695Y011342D01*
X000706Y011441D02*
X001880Y011441D01*
X000807Y012229D02*
X003840Y012229D01*
X003742Y012327D02*
X000829Y012327D01*
X000852Y012426D02*
X003643Y012426D01*
X003939Y012130D02*
X000784Y012130D01*
X000773Y012032D02*
X004037Y012032D01*
X004136Y011933D02*
X000762Y011933D01*
X000751Y011835D02*
X004234Y011835D01*
X004333Y011736D02*
X000739Y011736D01*
X000728Y011638D02*
X004431Y011638D01*
X004530Y011539D02*
X000717Y011539D01*
X001324Y010160D02*
X001329Y010160D01*
X002492Y009569D02*
X006185Y009569D01*
X006086Y009668D02*
X002729Y009668D01*
X002867Y009766D02*
X005988Y009766D01*
X005889Y009865D02*
X002965Y009865D01*
X003064Y009963D02*
X005791Y009963D01*
X006339Y010554D02*
X006711Y010554D01*
X006711Y010456D02*
X006438Y010456D01*
X006536Y010357D02*
X006711Y010357D01*
X006748Y010259D02*
X006635Y010259D01*
X006733Y010160D02*
X006789Y010160D01*
X006711Y010653D02*
X006241Y010653D01*
X006142Y010751D02*
X006749Y010751D01*
X006790Y010850D02*
X006044Y010850D01*
X005945Y010948D02*
X006832Y010948D01*
X006930Y011047D02*
X005847Y011047D01*
X005748Y011145D02*
X007029Y011145D01*
X007238Y011244D02*
X005650Y011244D01*
X005567Y011342D02*
X007749Y011342D01*
X007744Y011244D02*
X007798Y011244D01*
X007749Y011441D02*
X005568Y011441D01*
X005568Y011539D02*
X007749Y011539D01*
X007749Y011638D02*
X005569Y011638D01*
X005570Y011736D02*
X007749Y011736D01*
X007749Y011835D02*
X005570Y011835D01*
X005571Y011933D02*
X007749Y011933D01*
X007749Y012032D02*
X005572Y012032D01*
X005572Y012130D02*
X007749Y012130D01*
X007749Y012229D02*
X005573Y012229D01*
X005574Y012327D02*
X007749Y012327D01*
X007749Y012426D02*
X005575Y012426D01*
X005575Y012524D02*
X007749Y012524D01*
X007749Y012623D02*
X005576Y012623D01*
X005577Y012721D02*
X007749Y012721D01*
X007749Y012820D02*
X005577Y012820D01*
X005578Y012918D02*
X007749Y012918D01*
X007749Y013017D02*
X005579Y013017D01*
X005580Y013115D02*
X007749Y013115D01*
X007749Y013214D02*
X005580Y013214D01*
X005581Y013312D02*
X007749Y013312D01*
X007749Y013411D02*
X005582Y013411D01*
X005582Y013509D02*
X007749Y013509D01*
X007749Y013608D02*
X005583Y013608D01*
X005584Y013706D02*
X007749Y013706D01*
X007749Y013805D02*
X005584Y013805D01*
X005585Y013903D02*
X007749Y013903D01*
X007749Y014002D02*
X005586Y014002D01*
X005569Y014100D02*
X007749Y014100D01*
X007749Y014199D02*
X005469Y014199D01*
X005368Y014297D02*
X007749Y014297D01*
X007749Y014396D02*
X005267Y014396D01*
X005166Y014494D02*
X007749Y014494D01*
X007749Y014593D02*
X005066Y014593D01*
X004965Y014691D02*
X007749Y014691D01*
X007749Y015085D02*
X004562Y015085D01*
X004727Y015093D02*
X005088Y015242D01*
X005364Y015518D01*
X005513Y015879D01*
X005513Y016269D01*
X005429Y016472D01*
X005508Y016393D01*
X005710Y016594D01*
X005729Y016629D01*
X005739Y016667D01*
X005739Y016706D01*
X005729Y016744D01*
X005710Y016779D01*
X005720Y016760D02*
X007749Y016760D01*
X007749Y016661D02*
X005738Y016661D01*
X005678Y016563D02*
X007749Y016563D01*
X007749Y016464D02*
X005579Y016464D01*
X005437Y016464D02*
X005432Y016464D01*
X005473Y016366D02*
X007749Y016366D01*
X007749Y016267D02*
X005513Y016267D01*
X005513Y016169D02*
X007749Y016169D01*
X007749Y016070D02*
X005513Y016070D01*
X005513Y015972D02*
X007749Y015972D01*
X007749Y015873D02*
X005511Y015873D01*
X005470Y015775D02*
X007749Y015775D01*
X007749Y015676D02*
X005429Y015676D01*
X005388Y015578D02*
X007749Y015578D01*
X007749Y015479D02*
X005325Y015479D01*
X005226Y015381D02*
X007749Y015381D01*
X007749Y015282D02*
X005128Y015282D01*
X004947Y015184D02*
X007749Y015184D01*
X008716Y013706D02*
X008735Y013706D01*
X011360Y013115D02*
X012083Y013115D01*
X012194Y013115D02*
X012546Y013115D01*
X012644Y013214D02*
X011457Y013214D01*
X012349Y013017D02*
X012447Y013017D01*
X011744Y014481D02*
X013260Y014481D01*
X013280Y014461D01*
X013440Y015184D02*
X014067Y015184D01*
X014034Y015085D02*
X013973Y015085D01*
X013970Y015282D02*
X014157Y015282D01*
X014769Y015676D02*
X014789Y015676D01*
X014879Y016661D02*
X012296Y016661D01*
X012198Y016760D02*
X014978Y016760D01*
X015076Y016858D02*
X013343Y016858D01*
X013581Y016957D02*
X014085Y016957D01*
X014027Y017055D02*
X013738Y017055D01*
X013837Y017154D02*
X014014Y017154D01*
X014284Y017138D02*
X013992Y017430D01*
X013992Y017830D01*
X014483Y016957D02*
X015240Y016957D01*
X012908Y016858D02*
X012100Y016858D01*
X011810Y017449D02*
X011511Y017449D01*
X011280Y019321D02*
X010952Y019321D01*
X011043Y019419D02*
X011201Y019419D01*
X011157Y019518D02*
X011084Y019518D01*
X011110Y019616D02*
X011134Y019616D01*
X011110Y019715D02*
X011580Y019715D01*
X011188Y019912D02*
X011053Y019912D01*
X011094Y019813D02*
X011149Y019813D01*
X012571Y015465D02*
X012756Y015457D01*
X009120Y010606D02*
X008690Y010606D01*
X008800Y009668D02*
X008873Y009668D01*
X008946Y009569D02*
X008702Y009569D01*
X008603Y009471D02*
X008946Y009471D01*
X008946Y009372D02*
X008505Y009372D01*
X008406Y009274D02*
X008881Y009274D01*
X008783Y009175D02*
X008308Y009175D01*
X007896Y008289D02*
X003425Y008289D01*
X003524Y008190D02*
X007798Y008190D01*
X007699Y008092D02*
X003622Y008092D01*
X003687Y007993D02*
X007601Y007993D01*
X007502Y007895D02*
X004111Y007895D01*
X004141Y007796D02*
X007404Y007796D01*
X007305Y007698D02*
X004141Y007698D01*
X007968Y007535D02*
X007968Y003224D01*
X008347Y003659D02*
X009702Y003659D01*
X009702Y003758D02*
X008148Y003758D01*
X008148Y003856D02*
X009709Y003856D01*
X009141Y007402D02*
X009041Y007402D01*
X009041Y007501D02*
X009141Y007501D01*
X009141Y007599D02*
X009041Y007599D01*
X008810Y007402D02*
X008148Y007402D01*
X008188Y007501D02*
X008719Y007501D01*
X008668Y007599D02*
X008287Y007599D01*
X008385Y007698D02*
X008644Y007698D01*
X010080Y009175D02*
X010219Y009175D01*
X010219Y009077D02*
X010179Y009077D01*
X010277Y008978D02*
X010300Y008978D01*
X010327Y008880D02*
X010398Y008880D01*
X010544Y008989D02*
X010937Y008989D01*
X010544Y008989D02*
X010399Y009133D01*
X010399Y009523D01*
X005217Y012820D02*
X003873Y012820D01*
X003873Y012918D02*
X005218Y012918D01*
X005219Y013017D02*
X003873Y013017D01*
X004067Y013115D02*
X005220Y013115D01*
X005220Y013214D02*
X004141Y013214D01*
X004141Y013312D02*
X005221Y013312D01*
X005222Y013411D02*
X004141Y013411D01*
X004141Y013509D02*
X005222Y013509D01*
X005234Y016760D02*
X005288Y016760D01*
X005245Y016858D02*
X005386Y016858D01*
X005343Y016957D02*
X005485Y016957D01*
X005532Y016957D02*
X006607Y016957D01*
X006450Y017055D02*
X005433Y017055D01*
X004855Y017055D02*
X004728Y017055D01*
X003895Y017646D02*
X003867Y017646D01*
X001344Y002871D02*
X000650Y002871D01*
X000650Y002773D02*
X001209Y002773D01*
X001110Y002674D02*
X000650Y002674D01*
X000650Y002576D02*
X001033Y002576D01*
X000976Y002477D02*
X000650Y002477D01*
X000650Y002379D02*
X000922Y002379D01*
X000895Y002280D02*
X000650Y002280D01*
X000650Y002182D02*
X000869Y002182D01*
X000852Y002083D02*
X000650Y002083D01*
X000650Y001985D02*
X000852Y001985D01*
X000852Y001886D02*
X000650Y001886D01*
X000650Y001788D02*
X000867Y001788D01*
X000893Y001689D02*
X000650Y001689D01*
X000650Y001591D02*
X000919Y001591D01*
X000972Y001492D02*
X000650Y001492D01*
X000650Y001394D02*
X001028Y001394D01*
X001103Y001295D02*
X000650Y001295D01*
X000650Y001197D02*
X001201Y001197D01*
X001331Y001098D02*
X000650Y001098D01*
X000650Y001000D02*
X001507Y001000D01*
D19*
X008772Y011430D03*
X008319Y011744D03*
X009461Y011941D03*
X011174Y012296D03*
X012138Y012847D03*
X010839Y014264D03*
X012756Y015457D03*
X013280Y014953D03*
X013286Y014957D03*
X013280Y014461D03*
X013772Y015465D03*
X014304Y015052D03*
X015563Y014461D03*
X014284Y017138D03*
X012355Y016351D03*
X011508Y016528D03*
X010977Y017079D03*
X010603Y017414D03*
X010170Y017000D03*
X011823Y010721D03*
X013930Y010504D03*
M02*
