G75*
G70*
%OFA0B0*%
%FSLAX24Y24*%
%IPPOS*%
%LPD*%
%AMOC8*
5,1,8,0,0,1.08239X$1,22.5*
%
%ADD10C,0.0600*%
%ADD11C,0.1300*%
%ADD12R,0.0394X0.0433*%
%ADD13C,0.0700*%
%ADD14R,0.0433X0.0394*%
%ADD15R,0.0394X0.0394*%
%ADD16R,0.0118X0.0256*%
%ADD17R,0.0256X0.0118*%
%ADD18R,0.0669X0.0276*%
%ADD19C,0.0310*%
%ADD20C,0.0100*%
%ADD21C,0.0278*%
%ADD22C,0.0120*%
D10*
X009091Y007754D03*
X011091Y007754D03*
X011091Y013454D03*
X010091Y013454D03*
X009091Y013454D03*
D11*
X007491Y010504D03*
X012691Y010504D03*
D12*
X008260Y013772D03*
X007591Y013772D03*
D13*
X008630Y019678D03*
X009630Y019678D03*
X010630Y019678D03*
X011630Y019678D03*
D14*
X013201Y012768D03*
X013201Y012099D03*
D15*
X010597Y015577D03*
D16*
X010597Y014829D03*
X010794Y014829D03*
X010991Y014829D03*
X010400Y014829D03*
X010203Y014829D03*
X010203Y016325D03*
X010400Y016325D03*
X010597Y016325D03*
X010794Y016325D03*
X010991Y016325D03*
D17*
X011345Y015971D03*
X011345Y015774D03*
X011345Y015577D03*
X011345Y015380D03*
X011345Y015184D03*
X009849Y015184D03*
X009849Y015380D03*
X009849Y015577D03*
X009849Y015774D03*
X009849Y015971D03*
D18*
X008837Y016128D03*
X008837Y015656D03*
X008837Y015184D03*
D19*
X013286Y014957D03*
X013786Y014957D03*
X013786Y015457D03*
X013286Y015457D03*
X013286Y014457D03*
X013786Y014457D03*
D20*
X000650Y010544D02*
X000650Y000650D01*
X019453Y000650D01*
X019453Y010662D01*
X019436Y011226D01*
X019300Y012346D01*
X019030Y013441D01*
X018630Y014496D01*
X018106Y015495D01*
X017465Y016424D01*
X016717Y017268D01*
X016280Y017655D01*
X016017Y017584D01*
X015740Y017584D01*
X015473Y017656D01*
X015234Y017794D01*
X015038Y017990D01*
X014900Y018229D01*
X014828Y018496D01*
X014828Y018718D01*
X013945Y019181D01*
X012890Y019581D01*
X012122Y019771D01*
X012129Y019728D01*
X011680Y019728D01*
X011680Y019628D01*
X012129Y019628D01*
X012118Y019560D01*
X012094Y019486D01*
X012058Y019416D01*
X012012Y019352D01*
X011956Y019296D01*
X011892Y019250D01*
X011822Y019214D01*
X011747Y019190D01*
X011680Y019179D01*
X011680Y019628D01*
X011580Y019628D01*
X011132Y019628D01*
X011143Y019560D01*
X011167Y019486D01*
X011203Y019416D01*
X011249Y019352D01*
X011305Y019296D01*
X011368Y019250D01*
X011438Y019214D01*
X011513Y019190D01*
X011580Y019179D01*
X011580Y019628D01*
X011580Y019728D01*
X011132Y019728D01*
X011143Y019795D01*
X011167Y019869D01*
X011195Y019924D01*
X011040Y019943D01*
X011110Y019773D01*
X011110Y019582D01*
X011037Y019406D01*
X010916Y019284D01*
X011248Y018952D01*
X011354Y018847D01*
X011354Y017930D01*
X011248Y017824D01*
X010872Y017448D01*
X010872Y017360D01*
X010855Y017320D01*
X010923Y017348D01*
X011030Y017348D01*
X011129Y017307D01*
X011205Y017232D01*
X011246Y017133D01*
X011246Y017026D01*
X011205Y016927D01*
X011129Y016851D01*
X011030Y016810D01*
X010974Y016810D01*
X010974Y016708D01*
X011308Y016708D01*
X011356Y016756D01*
X011455Y016797D01*
X011562Y016797D01*
X011661Y016756D01*
X011736Y016680D01*
X011777Y016581D01*
X011777Y016500D01*
X011998Y016721D01*
X012103Y016826D01*
X013847Y016826D01*
X014320Y016352D01*
X014320Y016847D01*
X014298Y016869D01*
X014230Y016869D01*
X014131Y016910D01*
X014056Y016986D01*
X014015Y017085D01*
X014015Y017192D01*
X014056Y017291D01*
X014131Y017366D01*
X014230Y017407D01*
X014337Y017407D01*
X014436Y017366D01*
X014512Y017291D01*
X014553Y017192D01*
X014553Y017124D01*
X014680Y016996D01*
X014680Y015599D01*
X015549Y014730D01*
X015617Y014730D01*
X015716Y014689D01*
X015791Y014613D01*
X015832Y014515D01*
X015832Y014408D01*
X015791Y014309D01*
X015716Y014233D01*
X015617Y014192D01*
X015510Y014192D01*
X015411Y014233D01*
X015335Y014309D01*
X015294Y014408D01*
X015294Y014476D01*
X014484Y015286D01*
X014484Y015252D01*
X014532Y015204D01*
X014573Y015105D01*
X014573Y014998D01*
X014532Y014899D01*
X014456Y014823D01*
X014357Y014783D01*
X014289Y014783D01*
X014284Y014777D01*
X014009Y014777D01*
X013948Y014716D01*
X013980Y014694D01*
X014023Y014652D01*
X014056Y014602D01*
X014059Y014594D01*
X014063Y014594D01*
X014297Y014497D01*
X014476Y014318D01*
X014573Y014084D01*
X014573Y013830D01*
X014476Y013596D01*
X014297Y013417D01*
X014063Y013320D01*
X013809Y013320D01*
X013575Y013417D01*
X013536Y013456D01*
X013497Y013417D01*
X013263Y013320D01*
X013009Y013320D01*
X012829Y013395D01*
X013129Y013095D01*
X013472Y013095D01*
X013548Y013019D01*
X013548Y012517D01*
X013472Y012441D01*
X012931Y012441D01*
X012855Y012517D01*
X012855Y012860D01*
X012318Y013397D01*
X012318Y013047D01*
X012366Y012999D01*
X012407Y012900D01*
X012407Y012793D01*
X012366Y012694D01*
X012291Y012619D01*
X012192Y012578D01*
X012085Y012578D01*
X011986Y012619D01*
X011910Y012694D01*
X011886Y012753D01*
X011443Y012310D01*
X011443Y012279D01*
X012855Y012279D01*
X012855Y012350D01*
X012931Y012426D01*
X013472Y012426D01*
X019280Y012426D01*
X019256Y012524D02*
X013548Y012524D01*
X013548Y012623D02*
X017071Y012623D01*
X017196Y012571D02*
X017586Y012571D01*
X017947Y012720D01*
X018223Y012996D01*
X018372Y013357D01*
X018372Y013748D01*
X018223Y014108D01*
X017947Y014384D01*
X017586Y014534D01*
X017196Y014534D01*
X016835Y014384D01*
X016559Y014108D01*
X016409Y013748D01*
X016409Y013357D01*
X016559Y012996D01*
X016835Y012720D01*
X017196Y012571D01*
X016834Y012721D02*
X013548Y012721D01*
X013548Y012820D02*
X016736Y012820D01*
X016637Y012918D02*
X013548Y012918D01*
X013548Y013017D02*
X016550Y013017D01*
X016510Y013115D02*
X013109Y013115D01*
X013010Y013214D02*
X016469Y013214D01*
X016428Y013312D02*
X012912Y013312D01*
X012698Y013017D02*
X012349Y013017D01*
X012318Y013115D02*
X012600Y013115D01*
X012501Y013214D02*
X012318Y013214D01*
X012318Y013312D02*
X012403Y013312D01*
X012355Y013615D02*
X012355Y016351D01*
X012178Y016646D02*
X013772Y016646D01*
X014304Y016115D01*
X014304Y015052D01*
X014209Y014957D01*
X013786Y014957D01*
X013983Y014691D02*
X015079Y014691D01*
X015177Y014593D02*
X014066Y014593D01*
X014026Y014697D02*
X013786Y014457D01*
X014026Y014697D02*
X014244Y014697D01*
X014374Y014790D02*
X014980Y014790D01*
X014882Y014888D02*
X014521Y014888D01*
X014568Y014987D02*
X014783Y014987D01*
X014685Y015085D02*
X014573Y015085D01*
X014586Y015184D02*
X014540Y015184D01*
X014488Y015282D02*
X014484Y015282D01*
X014800Y015479D02*
X014896Y015479D01*
X014853Y015522D02*
X015129Y015246D01*
X015489Y015097D01*
X015880Y015097D01*
X016241Y015246D01*
X016517Y015522D01*
X016666Y015883D01*
X016666Y016274D01*
X016517Y016634D01*
X016241Y016910D01*
X015880Y017060D01*
X015489Y017060D01*
X015129Y016910D01*
X014853Y016634D01*
X014703Y016274D01*
X014703Y015883D01*
X014853Y015522D01*
X014830Y015578D02*
X014701Y015578D01*
X014680Y015676D02*
X014789Y015676D01*
X014748Y015775D02*
X014680Y015775D01*
X014680Y015873D02*
X014707Y015873D01*
X014703Y015972D02*
X014680Y015972D01*
X014680Y016070D02*
X014703Y016070D01*
X014703Y016169D02*
X014680Y016169D01*
X014680Y016267D02*
X014703Y016267D01*
X014680Y016366D02*
X014741Y016366D01*
X014782Y016464D02*
X014680Y016464D01*
X014680Y016563D02*
X014823Y016563D01*
X014879Y016661D02*
X014680Y016661D01*
X014680Y016760D02*
X014978Y016760D01*
X015076Y016858D02*
X014680Y016858D01*
X014680Y016957D02*
X015240Y016957D01*
X015478Y017055D02*
X014621Y017055D01*
X014553Y017154D02*
X016818Y017154D01*
X016731Y017252D02*
X014528Y017252D01*
X014452Y017351D02*
X016623Y017351D01*
X016512Y017449D02*
X014030Y017449D01*
X013989Y017351D02*
X014116Y017351D01*
X014040Y017252D02*
X013935Y017252D01*
X013958Y017274D02*
X014107Y017635D01*
X014107Y018026D01*
X013958Y018386D01*
X013682Y018662D01*
X013321Y018812D01*
X012930Y018812D01*
X012570Y018662D01*
X012294Y018386D01*
X012144Y018026D01*
X012144Y017635D01*
X012294Y017274D01*
X012570Y016998D01*
X012930Y016849D01*
X013321Y016849D01*
X013682Y016998D01*
X013958Y017274D01*
X014015Y017154D02*
X013837Y017154D01*
X013738Y017055D02*
X014027Y017055D01*
X014085Y016957D02*
X013581Y016957D01*
X013343Y016858D02*
X014309Y016858D01*
X014320Y016760D02*
X013913Y016760D01*
X014012Y016661D02*
X014320Y016661D01*
X014320Y016563D02*
X014110Y016563D01*
X014209Y016464D02*
X014320Y016464D01*
X014307Y016366D02*
X014320Y016366D01*
X014500Y016922D02*
X014284Y017138D01*
X014500Y016922D02*
X014500Y015524D01*
X015563Y014461D01*
X015800Y014593D02*
X018579Y014593D01*
X018528Y014691D02*
X015711Y014691D01*
X015832Y014494D02*
X017100Y014494D01*
X016862Y014396D02*
X015828Y014396D01*
X015780Y014297D02*
X016748Y014297D01*
X016649Y014199D02*
X015633Y014199D01*
X015494Y014199D02*
X014525Y014199D01*
X014484Y014297D02*
X015347Y014297D01*
X015299Y014396D02*
X014398Y014396D01*
X014300Y014494D02*
X015276Y014494D01*
X015489Y014790D02*
X018476Y014790D01*
X018424Y014888D02*
X015391Y014888D01*
X015292Y014987D02*
X018373Y014987D01*
X018321Y015085D02*
X015194Y015085D01*
X015280Y015184D02*
X015095Y015184D01*
X015093Y015282D02*
X014997Y015282D01*
X014994Y015381D02*
X014898Y015381D01*
X013786Y015457D02*
X013778Y015465D01*
X013772Y015465D01*
X013286Y015457D02*
X013004Y015465D01*
X012756Y015457D01*
X012138Y015504D02*
X012138Y012847D01*
X011899Y012721D02*
X011854Y012721D01*
X011755Y012623D02*
X011982Y012623D01*
X012294Y012623D02*
X012855Y012623D01*
X012855Y012721D02*
X012377Y012721D01*
X012407Y012820D02*
X012855Y012820D01*
X012797Y012918D02*
X012400Y012918D01*
X011922Y013044D02*
X011174Y012296D01*
X011173Y012270D01*
X011176Y012245D01*
X011182Y012220D01*
X011192Y012197D01*
X011204Y012175D01*
X011220Y012155D01*
X011239Y012138D01*
X011260Y012123D01*
X011282Y012112D01*
X011306Y012104D01*
X011331Y012099D01*
X013201Y012099D01*
X012868Y011835D02*
X010573Y011835D01*
X010475Y011736D02*
X019374Y011736D01*
X019386Y011638D02*
X010376Y011638D01*
X010278Y011539D02*
X019398Y011539D01*
X019410Y011441D02*
X018373Y011441D01*
X018537Y011373D02*
X018177Y011522D01*
X017786Y011522D01*
X017426Y011373D01*
X017149Y011097D01*
X017000Y010736D01*
X017000Y010345D01*
X017149Y009985D01*
X017426Y009708D01*
X017786Y009559D01*
X018177Y009559D01*
X018537Y009708D01*
X018814Y009985D01*
X018963Y010345D01*
X018963Y010736D01*
X018814Y011097D01*
X018537Y011373D01*
X018568Y011342D02*
X019422Y011342D01*
X019434Y011244D02*
X018666Y011244D01*
X018765Y011145D02*
X019439Y011145D01*
X019442Y011047D02*
X018834Y011047D01*
X018875Y010948D02*
X019444Y010948D01*
X019447Y010850D02*
X018916Y010850D01*
X018957Y010751D02*
X019450Y010751D01*
X019453Y010653D02*
X018963Y010653D01*
X018963Y010554D02*
X019453Y010554D01*
X019453Y010456D02*
X018963Y010456D01*
X018963Y010357D02*
X019453Y010357D01*
X019453Y010259D02*
X018927Y010259D01*
X018886Y010160D02*
X019453Y010160D01*
X019453Y010062D02*
X018845Y010062D01*
X018792Y009963D02*
X019453Y009963D01*
X019453Y009865D02*
X018694Y009865D01*
X018595Y009766D02*
X019453Y009766D01*
X019453Y009668D02*
X018439Y009668D01*
X018201Y009569D02*
X019453Y009569D01*
X019453Y009471D02*
X009962Y009471D01*
X009863Y009569D02*
X017762Y009569D01*
X017524Y009668D02*
X009765Y009668D01*
X009666Y009766D02*
X012435Y009766D01*
X012536Y009724D02*
X012249Y009843D01*
X012030Y010062D01*
X011911Y010349D01*
X011911Y010466D01*
X011877Y010452D01*
X011770Y010452D01*
X011671Y010493D01*
X011623Y010541D01*
X008892Y010541D01*
X011166Y008267D01*
X011166Y008267D01*
X011271Y008162D01*
X011271Y008145D01*
X011335Y008119D01*
X011455Y007998D01*
X011521Y007840D01*
X011521Y007669D01*
X011455Y007511D01*
X011335Y007390D01*
X011176Y007324D01*
X011005Y007324D01*
X010847Y007390D01*
X010726Y007511D01*
X010661Y007669D01*
X010661Y007840D01*
X010726Y007998D01*
X010826Y008097D01*
X008271Y010652D01*
X008271Y010349D01*
X008152Y010062D01*
X007933Y009843D01*
X007646Y009724D01*
X007336Y009724D01*
X007049Y009843D01*
X006830Y010062D01*
X006711Y010349D01*
X006711Y010659D01*
X006830Y010946D01*
X007049Y011166D01*
X007336Y011284D01*
X007639Y011284D01*
X006965Y011958D01*
X006965Y011958D01*
X006860Y012064D01*
X006860Y014319D01*
X006965Y014424D01*
X007280Y014739D01*
X009288Y014739D01*
X009605Y015057D01*
X009591Y015071D01*
X009591Y015281D01*
X009419Y015109D01*
X009313Y015004D01*
X009302Y015004D01*
X009302Y014992D01*
X009225Y014916D01*
X008448Y014916D01*
X008372Y014992D01*
X008372Y015375D01*
X008403Y015406D01*
X008382Y015426D01*
X008362Y015460D01*
X008352Y015499D01*
X008352Y015637D01*
X008818Y015637D01*
X008818Y015675D01*
X008352Y015675D01*
X008352Y015814D01*
X008362Y015852D01*
X008382Y015886D01*
X008403Y015906D01*
X008372Y015937D01*
X008372Y016320D01*
X008448Y016396D01*
X009161Y016396D01*
X008671Y016886D01*
X008671Y019198D01*
X008535Y019198D01*
X008358Y019271D01*
X008223Y019406D01*
X008150Y019582D01*
X008150Y019773D01*
X008156Y019786D01*
X007492Y019635D01*
X006490Y019284D01*
X005534Y018824D01*
X005314Y018686D01*
X005314Y018496D01*
X005243Y018229D01*
X005104Y017990D01*
X004909Y017794D01*
X004669Y017656D01*
X004402Y017584D01*
X004126Y017584D01*
X003874Y017652D01*
X003807Y017598D01*
X003056Y016848D01*
X002395Y016018D01*
X001830Y015120D01*
X001370Y014164D01*
X001020Y013163D01*
X000784Y012128D01*
X000665Y011074D01*
X000650Y010544D01*
X000650Y010554D02*
X001258Y010554D01*
X001258Y010456D02*
X000650Y010456D01*
X000650Y010357D02*
X001258Y010357D01*
X001258Y010332D02*
X001408Y009971D01*
X001684Y009695D01*
X002045Y009546D01*
X002435Y009546D01*
X002796Y009695D01*
X003072Y009971D01*
X003221Y010332D01*
X003221Y010722D01*
X003072Y011083D01*
X002796Y011359D01*
X002435Y011509D01*
X002045Y011509D01*
X001684Y011359D01*
X001408Y011083D01*
X001258Y010722D01*
X001258Y010332D01*
X001289Y010259D02*
X000650Y010259D01*
X000650Y010160D02*
X001329Y010160D01*
X001370Y010062D02*
X000650Y010062D01*
X000650Y009963D02*
X001416Y009963D01*
X001514Y009865D02*
X000650Y009865D01*
X000650Y009766D02*
X001613Y009766D01*
X001750Y009668D02*
X000650Y009668D01*
X000650Y009569D02*
X001988Y009569D01*
X002492Y009569D02*
X009354Y009569D01*
X009256Y009668D02*
X002729Y009668D01*
X002867Y009766D02*
X007235Y009766D01*
X007028Y009865D02*
X002965Y009865D01*
X003064Y009963D02*
X006929Y009963D01*
X006831Y010062D02*
X003109Y010062D01*
X003150Y010160D02*
X006789Y010160D01*
X006748Y010259D02*
X003191Y010259D01*
X003221Y010357D02*
X006711Y010357D01*
X006711Y010456D02*
X003221Y010456D01*
X003221Y010554D02*
X006711Y010554D01*
X006711Y010653D02*
X003221Y010653D01*
X003209Y010751D02*
X006749Y010751D01*
X006790Y010850D02*
X003169Y010850D01*
X003128Y010948D02*
X006832Y010948D01*
X006930Y011047D02*
X003087Y011047D01*
X003010Y011145D02*
X007029Y011145D01*
X007238Y011244D02*
X002911Y011244D01*
X002813Y011342D02*
X007581Y011342D01*
X007483Y011441D02*
X002599Y011441D01*
X001880Y011441D02*
X000706Y011441D01*
X000717Y011539D02*
X007384Y011539D01*
X007286Y011638D02*
X000728Y011638D01*
X000739Y011736D02*
X007187Y011736D01*
X007089Y011835D02*
X000751Y011835D01*
X000762Y011933D02*
X006990Y011933D01*
X006892Y012032D02*
X000773Y012032D01*
X000784Y012130D02*
X006860Y012130D01*
X006860Y012229D02*
X000807Y012229D01*
X000829Y012327D02*
X006860Y012327D01*
X006860Y012426D02*
X000852Y012426D01*
X000874Y012524D02*
X006860Y012524D01*
X006860Y012623D02*
X003135Y012623D01*
X003026Y012577D02*
X003386Y012727D01*
X003662Y013003D01*
X003812Y013363D01*
X003812Y013754D01*
X003662Y014115D01*
X003386Y014391D01*
X003026Y014540D01*
X002635Y014540D01*
X002274Y014391D01*
X001998Y014115D01*
X001849Y013754D01*
X001849Y013363D01*
X001998Y013003D01*
X002274Y012727D01*
X002635Y012577D01*
X003026Y012577D01*
X003373Y012721D02*
X006860Y012721D01*
X006860Y012820D02*
X003479Y012820D01*
X003578Y012918D02*
X006860Y012918D01*
X006860Y013017D02*
X003668Y013017D01*
X003709Y013115D02*
X006860Y013115D01*
X006860Y013214D02*
X003750Y013214D01*
X003791Y013312D02*
X006860Y013312D01*
X006860Y013411D02*
X003812Y013411D01*
X003812Y013509D02*
X006860Y013509D01*
X006860Y013608D02*
X003812Y013608D01*
X003812Y013706D02*
X006860Y013706D01*
X006860Y013805D02*
X003791Y013805D01*
X003750Y013903D02*
X006860Y013903D01*
X006860Y014002D02*
X003709Y014002D01*
X003668Y014100D02*
X006860Y014100D01*
X006860Y014199D02*
X003578Y014199D01*
X003480Y014297D02*
X006860Y014297D01*
X006936Y014396D02*
X003374Y014396D01*
X003137Y014494D02*
X007035Y014494D01*
X007133Y014593D02*
X001577Y014593D01*
X001624Y014691D02*
X007232Y014691D01*
X007355Y014559D02*
X007040Y014244D01*
X007040Y012138D01*
X011091Y008087D01*
X011091Y007754D01*
X011445Y007501D02*
X016390Y007501D01*
X016390Y007599D02*
X011492Y007599D01*
X011521Y007698D02*
X016395Y007698D01*
X016390Y007685D02*
X016390Y007294D01*
X016539Y006933D01*
X016815Y006657D01*
X017176Y006508D01*
X017566Y006508D01*
X017927Y006657D01*
X018203Y006933D01*
X018353Y007294D01*
X018353Y007685D01*
X018203Y008045D01*
X017927Y008321D01*
X017566Y008471D01*
X017176Y008471D01*
X016815Y008321D01*
X016539Y008045D01*
X016390Y007685D01*
X016436Y007796D02*
X011521Y007796D01*
X011498Y007895D02*
X016477Y007895D01*
X016518Y007993D02*
X011457Y007993D01*
X011362Y008092D02*
X016585Y008092D01*
X016684Y008190D02*
X011242Y008190D01*
X011144Y008289D02*
X016782Y008289D01*
X016974Y008387D02*
X011045Y008387D01*
X010947Y008486D02*
X019453Y008486D01*
X019453Y008584D02*
X010848Y008584D01*
X010750Y008683D02*
X019453Y008683D01*
X019453Y008781D02*
X010651Y008781D01*
X010553Y008880D02*
X019453Y008880D01*
X019453Y008978D02*
X010454Y008978D01*
X010356Y009077D02*
X019453Y009077D01*
X019453Y009175D02*
X010257Y009175D01*
X010159Y009274D02*
X019453Y009274D01*
X019453Y009372D02*
X010060Y009372D01*
X009847Y009077D02*
X000650Y009077D01*
X000650Y009175D02*
X009748Y009175D01*
X009650Y009274D02*
X000650Y009274D01*
X000650Y009372D02*
X009551Y009372D01*
X009453Y009471D02*
X000650Y009471D01*
X000650Y008978D02*
X009945Y008978D01*
X010044Y008880D02*
X000650Y008880D01*
X000650Y008781D02*
X010142Y008781D01*
X010241Y008683D02*
X000650Y008683D01*
X000650Y008584D02*
X010339Y008584D01*
X010438Y008486D02*
X000650Y008486D01*
X000650Y008387D02*
X002418Y008387D01*
X002274Y008328D02*
X002635Y008477D01*
X003026Y008477D01*
X003386Y008328D01*
X003662Y008052D01*
X003812Y007691D01*
X003812Y007300D01*
X003662Y006940D01*
X003386Y006664D01*
X003026Y006514D01*
X002635Y006514D01*
X002274Y006664D01*
X001998Y006940D01*
X001849Y007300D01*
X001849Y007691D01*
X001998Y008052D01*
X002274Y008328D01*
X002235Y008289D02*
X000650Y008289D01*
X000650Y008190D02*
X002137Y008190D01*
X002038Y008092D02*
X000650Y008092D01*
X000650Y007993D02*
X001974Y007993D01*
X001933Y007895D02*
X000650Y007895D01*
X000650Y007796D02*
X001892Y007796D01*
X001852Y007698D02*
X000650Y007698D01*
X000650Y007599D02*
X001849Y007599D01*
X001849Y007501D02*
X000650Y007501D01*
X000650Y007402D02*
X001849Y007402D01*
X001849Y007304D02*
X000650Y007304D01*
X000650Y007205D02*
X001888Y007205D01*
X001929Y007107D02*
X000650Y007107D01*
X000650Y007008D02*
X001970Y007008D01*
X002028Y006910D02*
X000650Y006910D01*
X000650Y006811D02*
X002127Y006811D01*
X002225Y006713D02*
X000650Y006713D01*
X000650Y006614D02*
X002394Y006614D01*
X002632Y006516D02*
X000650Y006516D01*
X000650Y006417D02*
X019453Y006417D01*
X019453Y006319D02*
X000650Y006319D01*
X000650Y006220D02*
X019453Y006220D01*
X019453Y006122D02*
X000650Y006122D01*
X000650Y006023D02*
X019453Y006023D01*
X019453Y005925D02*
X015890Y005925D01*
X015874Y005931D02*
X016234Y005782D01*
X016510Y005506D01*
X016660Y005145D01*
X016660Y004755D01*
X016510Y004394D01*
X016234Y004118D01*
X015874Y003969D01*
X015483Y003969D01*
X015122Y004118D01*
X014846Y004394D01*
X014697Y004755D01*
X014697Y005145D01*
X014846Y005506D01*
X015122Y005782D01*
X015483Y005931D01*
X015874Y005931D01*
X016128Y005826D02*
X019453Y005826D01*
X019453Y005728D02*
X016289Y005728D01*
X016387Y005629D02*
X019453Y005629D01*
X019453Y005531D02*
X016486Y005531D01*
X016541Y005432D02*
X019453Y005432D01*
X019453Y005334D02*
X016582Y005334D01*
X016623Y005235D02*
X019453Y005235D01*
X019453Y005137D02*
X016660Y005137D01*
X016660Y005038D02*
X019453Y005038D01*
X019453Y004940D02*
X016660Y004940D01*
X016660Y004841D02*
X019453Y004841D01*
X019453Y004743D02*
X016655Y004743D01*
X016614Y004644D02*
X019453Y004644D01*
X019453Y004546D02*
X016573Y004546D01*
X016532Y004447D02*
X019453Y004447D01*
X019453Y004349D02*
X016465Y004349D01*
X016367Y004250D02*
X019453Y004250D01*
X019453Y004152D02*
X016268Y004152D01*
X016078Y004053D02*
X019453Y004053D01*
X019453Y003955D02*
X013810Y003955D01*
X013711Y004053D02*
X015279Y004053D01*
X015089Y004152D02*
X013524Y004152D01*
X013675Y004089D02*
X013315Y004239D01*
X012924Y004239D01*
X012563Y004089D01*
X012287Y003813D01*
X012138Y003452D01*
X012138Y003062D01*
X012287Y002701D01*
X012563Y002425D01*
X012924Y002276D01*
X013315Y002276D01*
X013675Y002425D01*
X013951Y002701D01*
X014101Y003062D01*
X014101Y003452D01*
X013951Y003813D01*
X013675Y004089D01*
X013908Y003856D02*
X019453Y003856D01*
X019453Y003758D02*
X013974Y003758D01*
X014015Y003659D02*
X019453Y003659D01*
X019453Y003561D02*
X014056Y003561D01*
X014097Y003462D02*
X019453Y003462D01*
X019453Y003364D02*
X014101Y003364D01*
X014101Y003265D02*
X019453Y003265D01*
X019453Y003167D02*
X014101Y003167D01*
X014101Y003068D02*
X019453Y003068D01*
X019453Y002970D02*
X014063Y002970D01*
X014022Y002871D02*
X017795Y002871D01*
X017757Y002861D02*
X017517Y002722D01*
X017322Y002527D01*
X017183Y002288D01*
X017112Y002021D01*
X017112Y001744D01*
X017183Y001477D01*
X017322Y001238D01*
X017517Y001042D01*
X017757Y000904D01*
X018024Y000832D01*
X018300Y000832D01*
X018567Y000904D01*
X018807Y001042D01*
X019002Y001238D01*
X019140Y001477D01*
X019212Y001744D01*
X019212Y002021D01*
X019140Y002288D01*
X019002Y002527D01*
X018807Y002722D01*
X018567Y002861D01*
X018300Y002932D01*
X018024Y002932D01*
X017757Y002861D01*
X017604Y002773D02*
X013981Y002773D01*
X013924Y002674D02*
X017469Y002674D01*
X017370Y002576D02*
X013826Y002576D01*
X013727Y002477D02*
X017293Y002477D01*
X017236Y002379D02*
X013563Y002379D01*
X013325Y002280D02*
X017181Y002280D01*
X017155Y002182D02*
X011030Y002182D01*
X011071Y002280D02*
X012913Y002280D01*
X012675Y002379D02*
X011112Y002379D01*
X011128Y002419D02*
X010979Y002058D01*
X010703Y001782D01*
X010342Y001632D01*
X009952Y001632D01*
X009591Y001782D01*
X009315Y002058D01*
X009165Y002419D01*
X009165Y002809D01*
X009315Y003170D01*
X009591Y003446D01*
X009952Y003595D01*
X010342Y003595D01*
X010703Y003446D01*
X010979Y003170D01*
X011128Y002809D01*
X011128Y002419D01*
X011128Y002477D02*
X012511Y002477D01*
X012413Y002576D02*
X011128Y002576D01*
X011128Y002674D02*
X012314Y002674D01*
X012258Y002773D02*
X011128Y002773D01*
X011103Y002871D02*
X012217Y002871D01*
X012176Y002970D02*
X011062Y002970D01*
X011021Y003068D02*
X012138Y003068D01*
X012138Y003167D02*
X010980Y003167D01*
X010884Y003265D02*
X012138Y003265D01*
X012138Y003364D02*
X010785Y003364D01*
X010664Y003462D02*
X012142Y003462D01*
X012183Y003561D02*
X010426Y003561D01*
X009868Y003561D02*
X008025Y003561D01*
X007984Y003659D02*
X012223Y003659D01*
X012264Y003758D02*
X007943Y003758D01*
X007934Y003780D02*
X007658Y004056D01*
X007297Y004206D01*
X006907Y004206D01*
X006546Y004056D01*
X006270Y003780D01*
X006120Y003419D01*
X006120Y003029D01*
X006270Y002668D01*
X006546Y002392D01*
X006907Y002243D01*
X007297Y002243D01*
X007658Y002392D01*
X007934Y002668D01*
X008083Y003029D01*
X008083Y003419D01*
X007934Y003780D01*
X007858Y003856D02*
X012330Y003856D01*
X012429Y003955D02*
X007759Y003955D01*
X007661Y004053D02*
X012527Y004053D01*
X012714Y004152D02*
X007427Y004152D01*
X006777Y004152D02*
X005159Y004152D01*
X005093Y004085D02*
X005369Y004361D01*
X005518Y004722D01*
X005518Y005112D01*
X005369Y005473D01*
X005093Y005749D01*
X004732Y005898D01*
X004341Y005898D01*
X003981Y005749D01*
X003705Y005473D01*
X003555Y005112D01*
X003555Y004722D01*
X003705Y004361D01*
X003981Y004085D01*
X004341Y003935D01*
X004732Y003935D01*
X005093Y004085D01*
X005016Y004053D02*
X006543Y004053D01*
X006445Y003955D02*
X004778Y003955D01*
X004295Y003955D02*
X000650Y003955D01*
X000650Y004053D02*
X004057Y004053D01*
X003914Y004152D02*
X000650Y004152D01*
X000650Y004250D02*
X003815Y004250D01*
X003717Y004349D02*
X000650Y004349D01*
X000650Y004447D02*
X003669Y004447D01*
X003628Y004546D02*
X000650Y004546D01*
X000650Y004644D02*
X003587Y004644D01*
X003555Y004743D02*
X000650Y004743D01*
X000650Y004841D02*
X003555Y004841D01*
X003555Y004940D02*
X000650Y004940D01*
X000650Y005038D02*
X003555Y005038D01*
X003565Y005137D02*
X000650Y005137D01*
X000650Y005235D02*
X003606Y005235D01*
X003647Y005334D02*
X000650Y005334D01*
X000650Y005432D02*
X003688Y005432D01*
X003762Y005531D02*
X000650Y005531D01*
X000650Y005629D02*
X003861Y005629D01*
X003959Y005728D02*
X000650Y005728D01*
X000650Y005826D02*
X004167Y005826D01*
X004906Y005826D02*
X015229Y005826D01*
X015068Y005728D02*
X005114Y005728D01*
X005212Y005629D02*
X014969Y005629D01*
X014871Y005531D02*
X005311Y005531D01*
X005386Y005432D02*
X014816Y005432D01*
X014775Y005334D02*
X005426Y005334D01*
X005467Y005235D02*
X014734Y005235D01*
X014697Y005137D02*
X005508Y005137D01*
X005518Y005038D02*
X014697Y005038D01*
X014697Y004940D02*
X005518Y004940D01*
X005518Y004841D02*
X014697Y004841D01*
X014702Y004743D02*
X005518Y004743D01*
X005486Y004644D02*
X014743Y004644D01*
X014783Y004546D02*
X005445Y004546D01*
X005404Y004447D02*
X014824Y004447D01*
X014892Y004349D02*
X005356Y004349D01*
X005258Y004250D02*
X014990Y004250D01*
X015467Y005925D02*
X000650Y005925D01*
X000650Y003856D02*
X006346Y003856D01*
X006261Y003758D02*
X000650Y003758D01*
X000650Y003659D02*
X006220Y003659D01*
X006179Y003561D02*
X000650Y003561D01*
X000650Y003462D02*
X006138Y003462D01*
X006120Y003364D02*
X000650Y003364D01*
X000650Y003265D02*
X006120Y003265D01*
X006120Y003167D02*
X000650Y003167D01*
X000650Y003068D02*
X006120Y003068D01*
X006145Y002970D02*
X002268Y002970D01*
X002307Y002959D02*
X002040Y003031D01*
X001764Y003031D01*
X001497Y002959D01*
X001257Y002821D01*
X001062Y002625D01*
X000924Y002386D01*
X000852Y002119D01*
X000852Y001842D01*
X000924Y001575D01*
X001062Y001336D01*
X001257Y001140D01*
X001497Y001002D01*
X001764Y000931D01*
X002040Y000931D01*
X002307Y001002D01*
X002547Y001140D01*
X002742Y001336D01*
X002880Y001575D01*
X002952Y001842D01*
X002952Y002119D01*
X002880Y002386D01*
X002742Y002625D01*
X002547Y002821D01*
X002307Y002959D01*
X002460Y002871D02*
X006186Y002871D01*
X006227Y002773D02*
X002595Y002773D01*
X002693Y002674D02*
X006267Y002674D01*
X006362Y002576D02*
X002771Y002576D01*
X002828Y002477D02*
X006461Y002477D01*
X006578Y002379D02*
X002882Y002379D01*
X002909Y002280D02*
X006816Y002280D01*
X007388Y002280D02*
X009223Y002280D01*
X009263Y002182D02*
X002935Y002182D01*
X002952Y002083D02*
X009304Y002083D01*
X009388Y001985D02*
X002952Y001985D01*
X002952Y001886D02*
X009486Y001886D01*
X009585Y001788D02*
X002937Y001788D01*
X002911Y001689D02*
X009814Y001689D01*
X009182Y002379D02*
X007626Y002379D01*
X007743Y002477D02*
X009165Y002477D01*
X009165Y002576D02*
X007842Y002576D01*
X007937Y002674D02*
X009165Y002674D01*
X009165Y002773D02*
X007977Y002773D01*
X008018Y002871D02*
X009191Y002871D01*
X009232Y002970D02*
X008059Y002970D01*
X008083Y003068D02*
X009273Y003068D01*
X009313Y003167D02*
X008083Y003167D01*
X008083Y003265D02*
X009410Y003265D01*
X009509Y003364D02*
X008083Y003364D01*
X008066Y003462D02*
X009630Y003462D01*
X010989Y002083D02*
X017129Y002083D01*
X017112Y001985D02*
X010906Y001985D01*
X010807Y001886D02*
X017112Y001886D01*
X017112Y001788D02*
X010709Y001788D01*
X010479Y001689D02*
X017127Y001689D01*
X017153Y001591D02*
X002884Y001591D01*
X002832Y001492D02*
X017179Y001492D01*
X017232Y001394D02*
X002775Y001394D01*
X002701Y001295D02*
X017288Y001295D01*
X017363Y001197D02*
X002603Y001197D01*
X002473Y001098D02*
X017461Y001098D01*
X017591Y001000D02*
X002297Y001000D01*
X001507Y001000D02*
X000650Y001000D01*
X000650Y001098D02*
X001331Y001098D01*
X001201Y001197D02*
X000650Y001197D01*
X000650Y001295D02*
X001103Y001295D01*
X001028Y001394D02*
X000650Y001394D01*
X000650Y001492D02*
X000972Y001492D01*
X000919Y001591D02*
X000650Y001591D01*
X000650Y001689D02*
X000893Y001689D01*
X000867Y001788D02*
X000650Y001788D01*
X000650Y001886D02*
X000852Y001886D01*
X000852Y001985D02*
X000650Y001985D01*
X000650Y002083D02*
X000852Y002083D01*
X000869Y002182D02*
X000650Y002182D01*
X000650Y002280D02*
X000895Y002280D01*
X000922Y002379D02*
X000650Y002379D01*
X000650Y002477D02*
X000976Y002477D01*
X001033Y002576D02*
X000650Y002576D01*
X000650Y002674D02*
X001110Y002674D01*
X001209Y002773D02*
X000650Y002773D01*
X000650Y002871D02*
X001344Y002871D01*
X001536Y002970D02*
X000650Y002970D01*
X000650Y000901D02*
X017767Y000901D01*
X018557Y000901D02*
X019453Y000901D01*
X019453Y000803D02*
X000650Y000803D01*
X000650Y000704D02*
X019453Y000704D01*
X019453Y001000D02*
X018733Y001000D01*
X018863Y001098D02*
X019453Y001098D01*
X019453Y001197D02*
X018961Y001197D01*
X019035Y001295D02*
X019453Y001295D01*
X019453Y001394D02*
X019092Y001394D01*
X019144Y001492D02*
X019453Y001492D01*
X019453Y001591D02*
X019171Y001591D01*
X019197Y001689D02*
X019453Y001689D01*
X019453Y001788D02*
X019212Y001788D01*
X019212Y001886D02*
X019453Y001886D01*
X019453Y001985D02*
X019212Y001985D01*
X019195Y002083D02*
X019453Y002083D01*
X019453Y002182D02*
X019169Y002182D01*
X019142Y002280D02*
X019453Y002280D01*
X019453Y002379D02*
X019088Y002379D01*
X019031Y002477D02*
X019453Y002477D01*
X019453Y002576D02*
X018953Y002576D01*
X018855Y002674D02*
X019453Y002674D01*
X019453Y002773D02*
X018720Y002773D01*
X018528Y002871D02*
X019453Y002871D01*
X019453Y006516D02*
X017585Y006516D01*
X017823Y006614D02*
X019453Y006614D01*
X019453Y006713D02*
X017983Y006713D01*
X018081Y006811D02*
X019453Y006811D01*
X019453Y006910D02*
X018180Y006910D01*
X018234Y007008D02*
X019453Y007008D01*
X019453Y007107D02*
X018275Y007107D01*
X018316Y007205D02*
X019453Y007205D01*
X019453Y007304D02*
X018353Y007304D01*
X018353Y007402D02*
X019453Y007402D01*
X019453Y007501D02*
X018353Y007501D01*
X018353Y007599D02*
X019453Y007599D01*
X019453Y007698D02*
X018347Y007698D01*
X018307Y007796D02*
X019453Y007796D01*
X019453Y007895D02*
X018266Y007895D01*
X018225Y007993D02*
X019453Y007993D01*
X019453Y008092D02*
X018157Y008092D01*
X018059Y008190D02*
X019453Y008190D01*
X019453Y008289D02*
X017960Y008289D01*
X017769Y008387D02*
X019453Y008387D01*
X017368Y009766D02*
X012947Y009766D01*
X012846Y009724D02*
X013133Y009843D01*
X013352Y010062D01*
X013471Y010349D01*
X013471Y010659D01*
X013352Y010946D01*
X013133Y011166D01*
X012846Y011284D01*
X012536Y011284D01*
X012249Y011166D01*
X012030Y010946D01*
X012015Y010910D01*
X011976Y010949D01*
X011877Y010990D01*
X011770Y010990D01*
X011671Y010949D01*
X011623Y010901D01*
X008827Y010901D01*
X008499Y011228D01*
X008499Y011544D01*
X008547Y011592D01*
X008588Y011691D01*
X008588Y011798D01*
X008547Y011897D01*
X008472Y011973D01*
X008373Y012014D01*
X008266Y012014D01*
X008167Y011973D01*
X008091Y011897D01*
X008050Y011798D01*
X008050Y011691D01*
X008091Y011592D01*
X008139Y011544D01*
X008139Y011293D01*
X007220Y012213D01*
X007220Y014170D01*
X007429Y014379D01*
X009437Y014379D01*
X010014Y014957D01*
X010014Y014647D01*
X010022Y014640D01*
X009240Y013858D01*
X009176Y013884D01*
X009005Y013884D01*
X008847Y013819D01*
X008726Y013698D01*
X008661Y013540D01*
X008661Y013369D01*
X008726Y013211D01*
X008847Y013090D01*
X009005Y013024D01*
X009176Y013024D01*
X009335Y013090D01*
X009455Y013211D01*
X009521Y013369D01*
X009521Y013540D01*
X009495Y013603D01*
X010220Y014329D01*
X010220Y014071D01*
X010687Y013603D01*
X010661Y013540D01*
X010661Y013369D01*
X010726Y013211D01*
X010847Y013090D01*
X011005Y013024D01*
X011176Y013024D01*
X011309Y013079D01*
X009839Y011610D01*
X008973Y011610D01*
X008924Y011658D01*
X008826Y011699D01*
X008719Y011699D01*
X008620Y011658D01*
X008544Y011582D01*
X008503Y011483D01*
X008503Y011376D01*
X008544Y011277D01*
X008620Y011201D01*
X008719Y011160D01*
X008826Y011160D01*
X008924Y011201D01*
X008973Y011250D01*
X009988Y011250D01*
X010094Y011355D01*
X010927Y012188D01*
X010946Y012143D01*
X011021Y012068D01*
X011058Y012053D01*
X011061Y012044D01*
X011216Y011931D01*
X011248Y011927D01*
X011257Y011919D01*
X011321Y011919D01*
X011385Y011912D01*
X011394Y011919D01*
X012855Y011919D01*
X012855Y011848D01*
X012931Y011772D01*
X013472Y011772D01*
X013548Y011848D01*
X013548Y012350D01*
X013472Y012426D01*
X013548Y012327D02*
X019302Y012327D01*
X019314Y012229D02*
X013548Y012229D01*
X013548Y012130D02*
X019326Y012130D01*
X019338Y012032D02*
X013548Y012032D01*
X013548Y011933D02*
X019350Y011933D01*
X019362Y011835D02*
X013534Y011835D01*
X012944Y011244D02*
X017297Y011244D01*
X017395Y011342D02*
X010081Y011342D01*
X010179Y011441D02*
X017590Y011441D01*
X017198Y011145D02*
X013153Y011145D01*
X013252Y011047D02*
X017129Y011047D01*
X017088Y010948D02*
X013350Y010948D01*
X013392Y010850D02*
X017047Y010850D01*
X017006Y010751D02*
X013433Y010751D01*
X013471Y010653D02*
X017000Y010653D01*
X017000Y010554D02*
X013471Y010554D01*
X013471Y010456D02*
X017000Y010456D01*
X017000Y010357D02*
X013471Y010357D01*
X013433Y010259D02*
X017036Y010259D01*
X017077Y010160D02*
X013393Y010160D01*
X013351Y010062D02*
X017118Y010062D01*
X017171Y009963D02*
X013253Y009963D01*
X013154Y009865D02*
X017269Y009865D01*
X016390Y007402D02*
X011347Y007402D01*
X010835Y007402D02*
X009372Y007402D01*
X009384Y007411D02*
X009434Y007461D01*
X009476Y007518D01*
X009508Y007582D01*
X009530Y007649D01*
X009539Y007704D01*
X009141Y007704D01*
X009141Y007307D01*
X009196Y007315D01*
X009264Y007337D01*
X009327Y007369D01*
X009384Y007411D01*
X009463Y007501D02*
X010737Y007501D01*
X010690Y007599D02*
X009514Y007599D01*
X009538Y007698D02*
X010661Y007698D01*
X010661Y007796D02*
X009141Y007796D01*
X009141Y007804D02*
X009539Y007804D01*
X009530Y007860D01*
X009508Y007927D01*
X009476Y007990D01*
X009434Y008047D01*
X009384Y008098D01*
X009327Y008139D01*
X009264Y008171D01*
X009196Y008193D01*
X009141Y008202D01*
X009141Y007804D01*
X009141Y007704D01*
X009041Y007704D01*
X009041Y007307D01*
X008986Y007315D01*
X008918Y007337D01*
X008855Y007369D01*
X008798Y007411D01*
X008748Y007461D01*
X008706Y007518D01*
X008674Y007582D01*
X008652Y007649D01*
X008643Y007704D01*
X009041Y007704D01*
X009041Y007804D01*
X008643Y007804D01*
X008652Y007860D01*
X008674Y007927D01*
X008706Y007990D01*
X008748Y008047D01*
X008798Y008098D01*
X008855Y008139D01*
X008918Y008171D01*
X008986Y008193D01*
X009041Y008202D01*
X009041Y007804D01*
X009141Y007804D01*
X009141Y007895D02*
X009041Y007895D01*
X009041Y007993D02*
X009141Y007993D01*
X009141Y008092D02*
X009041Y008092D01*
X009041Y008190D02*
X009141Y008190D01*
X009206Y008190D02*
X010733Y008190D01*
X010820Y008092D02*
X009390Y008092D01*
X009474Y007993D02*
X010724Y007993D01*
X010684Y007895D02*
X009519Y007895D01*
X009141Y007698D02*
X009041Y007698D01*
X009041Y007796D02*
X003768Y007796D01*
X003809Y007698D02*
X008644Y007698D01*
X008668Y007599D02*
X003812Y007599D01*
X003812Y007501D02*
X008719Y007501D01*
X008810Y007402D02*
X003812Y007402D01*
X003812Y007304D02*
X016390Y007304D01*
X016427Y007205D02*
X003772Y007205D01*
X003732Y007107D02*
X016467Y007107D01*
X016508Y007008D02*
X003691Y007008D01*
X003632Y006910D02*
X016563Y006910D01*
X016661Y006811D02*
X003534Y006811D01*
X003435Y006713D02*
X016760Y006713D01*
X016920Y006614D02*
X003267Y006614D01*
X003029Y006516D02*
X017157Y006516D01*
X012846Y009724D02*
X012536Y009724D01*
X012228Y009865D02*
X009568Y009865D01*
X009469Y009963D02*
X012129Y009963D01*
X012031Y010062D02*
X009371Y010062D01*
X009272Y010160D02*
X011989Y010160D01*
X011948Y010259D02*
X009174Y010259D01*
X009075Y010357D02*
X011911Y010357D01*
X011911Y010456D02*
X011886Y010456D01*
X011760Y010456D02*
X008977Y010456D01*
X008752Y010721D02*
X008319Y011154D01*
X008319Y011744D01*
X008072Y011638D02*
X007795Y011638D01*
X007696Y011736D02*
X008050Y011736D01*
X008065Y011835D02*
X007598Y011835D01*
X007499Y011933D02*
X008127Y011933D01*
X008511Y011933D02*
X009192Y011933D01*
X009192Y011956D02*
X009192Y011888D01*
X009233Y011789D01*
X009309Y011713D01*
X009408Y011672D01*
X009515Y011672D01*
X009613Y011713D01*
X009689Y011789D01*
X009730Y011888D01*
X009730Y011995D01*
X009689Y012094D01*
X009613Y012169D01*
X009515Y012210D01*
X009447Y012210D01*
X008440Y013217D01*
X008440Y013426D01*
X008511Y013426D01*
X008587Y013502D01*
X008587Y014042D01*
X008511Y014119D01*
X008010Y014119D01*
X007933Y014042D01*
X007933Y014025D01*
X007928Y014046D01*
X007908Y014081D01*
X007880Y014109D01*
X007846Y014128D01*
X007808Y014139D01*
X007639Y014139D01*
X007639Y013820D01*
X007543Y013820D01*
X007543Y013724D01*
X007639Y013724D01*
X007639Y013406D01*
X007808Y013406D01*
X007846Y013416D01*
X007880Y013435D01*
X007908Y013463D01*
X007928Y013498D01*
X007933Y013519D01*
X007933Y013502D01*
X008010Y013426D01*
X008080Y013426D01*
X008080Y013068D01*
X009192Y011956D01*
X009116Y012032D02*
X007401Y012032D01*
X007302Y012130D02*
X009018Y012130D01*
X008919Y012229D02*
X007220Y012229D01*
X007220Y012327D02*
X008821Y012327D01*
X008722Y012426D02*
X007220Y012426D01*
X007220Y012524D02*
X008624Y012524D01*
X008525Y012623D02*
X007220Y012623D01*
X007220Y012721D02*
X008427Y012721D01*
X008328Y012820D02*
X007220Y012820D01*
X007220Y012918D02*
X008230Y012918D01*
X008131Y013017D02*
X007220Y013017D01*
X007220Y013115D02*
X008080Y013115D01*
X008080Y013214D02*
X007220Y013214D01*
X007220Y013312D02*
X008080Y013312D01*
X008080Y013411D02*
X007827Y013411D01*
X007931Y013509D02*
X007933Y013509D01*
X007639Y013509D02*
X007543Y013509D01*
X007543Y013411D02*
X007639Y013411D01*
X007543Y013406D02*
X007374Y013406D01*
X007336Y013416D01*
X007302Y013435D01*
X007274Y013463D01*
X007254Y013498D01*
X007244Y013536D01*
X007244Y013724D01*
X007543Y013724D01*
X007543Y013406D01*
X007355Y013411D02*
X007220Y013411D01*
X007220Y013509D02*
X007251Y013509D01*
X007244Y013608D02*
X007220Y013608D01*
X007220Y013706D02*
X007244Y013706D01*
X007220Y013805D02*
X007543Y013805D01*
X007543Y013820D02*
X007244Y013820D01*
X007244Y014008D01*
X007254Y014046D01*
X007274Y014081D01*
X007302Y014109D01*
X007336Y014128D01*
X007374Y014139D01*
X007543Y014139D01*
X007543Y013820D01*
X007543Y013903D02*
X007639Y013903D01*
X007639Y014002D02*
X007543Y014002D01*
X007543Y014100D02*
X007639Y014100D01*
X007294Y014100D02*
X007220Y014100D01*
X007220Y014002D02*
X007244Y014002D01*
X007244Y013903D02*
X007220Y013903D01*
X007248Y014199D02*
X009581Y014199D01*
X009679Y014297D02*
X007347Y014297D01*
X007355Y014559D02*
X009363Y014559D01*
X009849Y015046D01*
X009849Y015184D01*
X009591Y015184D02*
X009493Y015184D01*
X009395Y015085D02*
X009591Y015085D01*
X009535Y014987D02*
X009296Y014987D01*
X009437Y014888D02*
X001719Y014888D01*
X001671Y014790D02*
X009338Y014790D01*
X009552Y014494D02*
X009876Y014494D01*
X009778Y014396D02*
X009453Y014396D01*
X009650Y014593D02*
X009975Y014593D01*
X010014Y014691D02*
X009749Y014691D01*
X009847Y014790D02*
X010014Y014790D01*
X010014Y014888D02*
X009946Y014888D01*
X010107Y015087D02*
X010107Y016067D01*
X010316Y016067D01*
X010513Y016067D01*
X011087Y016067D01*
X011087Y015087D01*
X010731Y015087D01*
X010714Y015097D01*
X010676Y015107D01*
X010597Y015107D01*
X010518Y015107D01*
X010480Y015097D01*
X010463Y015087D01*
X010107Y015087D01*
X010107Y015184D02*
X011087Y015184D01*
X011087Y015282D02*
X010908Y015282D01*
X010914Y015288D02*
X010886Y015260D01*
X010852Y015241D01*
X010814Y015230D01*
X010645Y015230D01*
X010645Y015529D01*
X010549Y015529D01*
X010549Y015230D01*
X010380Y015230D01*
X010342Y015241D01*
X010308Y015260D01*
X010280Y015288D01*
X010260Y015323D01*
X010250Y015361D01*
X010250Y015529D01*
X010549Y015529D01*
X010549Y015626D01*
X010549Y015924D01*
X010380Y015924D01*
X010342Y015914D01*
X010308Y015894D01*
X010280Y015866D01*
X010260Y015832D01*
X010250Y015794D01*
X010250Y015626D01*
X010549Y015626D01*
X010645Y015626D01*
X010645Y015924D01*
X010814Y015924D01*
X010852Y015914D01*
X010886Y015894D01*
X010914Y015866D01*
X010934Y015832D01*
X010944Y015794D01*
X010944Y015626D01*
X010645Y015626D01*
X010645Y015529D01*
X010944Y015529D01*
X010944Y015361D01*
X010934Y015323D01*
X010914Y015288D01*
X010944Y015381D02*
X011087Y015381D01*
X011087Y015479D02*
X010944Y015479D01*
X011087Y015578D02*
X010645Y015578D01*
X010549Y015578D02*
X010107Y015578D01*
X010107Y015676D02*
X010250Y015676D01*
X010250Y015775D02*
X010107Y015775D01*
X010107Y015873D02*
X010287Y015873D01*
X010107Y015972D02*
X011087Y015972D01*
X011087Y015873D02*
X010907Y015873D01*
X010944Y015775D02*
X011087Y015775D01*
X011087Y015676D02*
X010944Y015676D01*
X010645Y015676D02*
X010549Y015676D01*
X010549Y015775D02*
X010645Y015775D01*
X010645Y015873D02*
X010549Y015873D01*
X010549Y015479D02*
X010645Y015479D01*
X010645Y015381D02*
X010549Y015381D01*
X010549Y015282D02*
X010645Y015282D01*
X010597Y015107D02*
X010597Y014829D01*
X010597Y014551D01*
X010597Y014829D01*
X010597Y014829D01*
X010597Y015107D01*
X010597Y015085D02*
X010597Y015085D01*
X010597Y014987D02*
X010597Y014987D01*
X010597Y014888D02*
X010597Y014888D01*
X010597Y014829D02*
X010597Y014829D01*
X010597Y014790D02*
X010597Y014790D01*
X010597Y014691D02*
X010597Y014691D01*
X010597Y014593D02*
X010597Y014593D01*
X010597Y014551D02*
X010676Y014551D01*
X010714Y014562D01*
X010731Y014571D01*
X011104Y014571D01*
X011180Y014647D01*
X011180Y014995D01*
X011525Y014995D01*
X011525Y013295D01*
X011466Y013236D01*
X011521Y013369D01*
X011521Y013540D01*
X011455Y013698D01*
X011335Y013819D01*
X011176Y013884D01*
X011005Y013884D01*
X010942Y013858D01*
X010580Y014220D01*
X010580Y014551D01*
X010597Y014551D01*
X010580Y014494D02*
X011525Y014494D01*
X011525Y014396D02*
X010580Y014396D01*
X010580Y014297D02*
X011525Y014297D01*
X011525Y014199D02*
X010601Y014199D01*
X010700Y014100D02*
X011525Y014100D01*
X011525Y014002D02*
X010798Y014002D01*
X010897Y013903D02*
X011525Y013903D01*
X011525Y013805D02*
X011349Y013805D01*
X011447Y013706D02*
X011525Y013706D01*
X011525Y013608D02*
X011493Y013608D01*
X011521Y013509D02*
X011525Y013509D01*
X011521Y013411D02*
X011525Y013411D01*
X011525Y013312D02*
X011497Y013312D01*
X011705Y013221D02*
X009914Y011430D01*
X008772Y011430D01*
X008526Y011539D02*
X008499Y011539D01*
X008499Y011441D02*
X008503Y011441D01*
X008499Y011342D02*
X008517Y011342D01*
X008499Y011244D02*
X008577Y011244D01*
X008583Y011145D02*
X012229Y011145D01*
X012130Y011047D02*
X008681Y011047D01*
X008780Y010948D02*
X011670Y010948D01*
X011976Y010948D02*
X012032Y010948D01*
X011823Y010721D02*
X008752Y010721D01*
X008468Y010456D02*
X008271Y010456D01*
X008271Y010554D02*
X008369Y010554D01*
X008271Y010357D02*
X008566Y010357D01*
X008665Y010259D02*
X008233Y010259D01*
X008193Y010160D02*
X008763Y010160D01*
X008862Y010062D02*
X008151Y010062D01*
X008053Y009963D02*
X008960Y009963D01*
X009059Y009865D02*
X007954Y009865D01*
X007747Y009766D02*
X009157Y009766D01*
X008967Y011244D02*
X012438Y011244D01*
X012855Y012327D02*
X011460Y012327D01*
X011558Y012426D02*
X012931Y012426D01*
X012855Y012524D02*
X011657Y012524D01*
X011148Y012918D02*
X008739Y012918D01*
X008837Y012820D02*
X011049Y012820D01*
X010951Y012721D02*
X008936Y012721D01*
X009034Y012623D02*
X010852Y012623D01*
X010754Y012524D02*
X009133Y012524D01*
X009231Y012426D02*
X010655Y012426D01*
X010557Y012327D02*
X009330Y012327D01*
X009428Y012229D02*
X010458Y012229D01*
X010360Y012130D02*
X009653Y012130D01*
X009715Y012032D02*
X010261Y012032D01*
X010163Y011933D02*
X009730Y011933D01*
X009708Y011835D02*
X010064Y011835D01*
X009966Y011736D02*
X009636Y011736D01*
X009461Y011941D02*
X008260Y013142D01*
X008260Y013772D01*
X008587Y013805D02*
X008833Y013805D01*
X008735Y013706D02*
X008587Y013706D01*
X008587Y013608D02*
X008689Y013608D01*
X008661Y013509D02*
X008587Y013509D01*
X008661Y013411D02*
X008440Y013411D01*
X008440Y013312D02*
X008684Y013312D01*
X008725Y013214D02*
X008443Y013214D01*
X008542Y013115D02*
X008822Y013115D01*
X008640Y013017D02*
X009982Y013017D01*
X009986Y013015D02*
X009918Y013037D01*
X009855Y013069D01*
X009798Y013111D01*
X009748Y013161D01*
X009706Y013218D01*
X009674Y013282D01*
X009652Y013349D01*
X009643Y013404D01*
X010041Y013404D01*
X010141Y013404D01*
X010141Y013007D01*
X010196Y013015D01*
X010264Y013037D01*
X010327Y013069D01*
X010384Y013111D01*
X010434Y013161D01*
X010476Y013218D01*
X010508Y013282D01*
X010530Y013349D01*
X010539Y013404D01*
X010141Y013404D01*
X010141Y013504D01*
X010539Y013504D01*
X010530Y013560D01*
X010508Y013627D01*
X010476Y013690D01*
X010434Y013747D01*
X010384Y013798D01*
X010327Y013839D01*
X010264Y013871D01*
X010196Y013893D01*
X010141Y013902D01*
X010141Y013504D01*
X010041Y013504D01*
X010041Y013404D01*
X010041Y013007D01*
X009986Y013015D01*
X010041Y013017D02*
X010141Y013017D01*
X010200Y013017D02*
X011246Y013017D01*
X010822Y013115D02*
X010388Y013115D01*
X010472Y013214D02*
X010725Y013214D01*
X010684Y013312D02*
X010518Y013312D01*
X010661Y013411D02*
X010141Y013411D01*
X010141Y013509D02*
X010041Y013509D01*
X010041Y013504D02*
X010041Y013902D01*
X009986Y013893D01*
X009918Y013871D01*
X009855Y013839D01*
X009798Y013798D01*
X009748Y013747D01*
X009706Y013690D01*
X009674Y013627D01*
X009652Y013560D01*
X009643Y013504D01*
X010041Y013504D01*
X010041Y013411D02*
X009521Y013411D01*
X009521Y013509D02*
X009644Y013509D01*
X009668Y013608D02*
X009499Y013608D01*
X009597Y013706D02*
X009718Y013706D01*
X009696Y013805D02*
X009808Y013805D01*
X009794Y013903D02*
X010388Y013903D01*
X010374Y013805D02*
X010486Y013805D01*
X010464Y013706D02*
X010585Y013706D01*
X010514Y013608D02*
X010683Y013608D01*
X010661Y013509D02*
X010538Y013509D01*
X010141Y013608D02*
X010041Y013608D01*
X010041Y013706D02*
X010141Y013706D01*
X010141Y013805D02*
X010041Y013805D01*
X009893Y014002D02*
X010289Y014002D01*
X010220Y014100D02*
X009991Y014100D01*
X010090Y014199D02*
X010220Y014199D01*
X010220Y014297D02*
X010188Y014297D01*
X010400Y014145D02*
X011091Y013454D01*
X011705Y013221D02*
X011705Y015288D01*
X011626Y015367D01*
X011351Y015367D01*
X011345Y015380D01*
X011345Y015577D02*
X011351Y015583D01*
X011744Y015583D01*
X011922Y015406D01*
X011922Y013044D01*
X012355Y013615D02*
X013201Y012768D01*
X013481Y013411D02*
X013590Y013411D01*
X014281Y013411D02*
X016409Y013411D01*
X016409Y013509D02*
X014389Y013509D01*
X014481Y013608D02*
X016409Y013608D01*
X016409Y013706D02*
X014521Y013706D01*
X014562Y013805D02*
X016433Y013805D01*
X016474Y013903D02*
X014573Y013903D01*
X014573Y014002D02*
X016515Y014002D01*
X016555Y014100D02*
X014566Y014100D01*
X013286Y014457D02*
X013262Y014481D01*
X013280Y014461D01*
X013280Y014953D02*
X013284Y014957D01*
X013286Y014957D01*
X013321Y014953D01*
X013280Y014953D01*
X012138Y015504D02*
X011863Y015780D01*
X011351Y015780D01*
X011345Y015774D01*
X011345Y015971D02*
X011503Y015971D01*
X012178Y016646D01*
X012037Y016760D02*
X011652Y016760D01*
X011744Y016661D02*
X011938Y016661D01*
X011840Y016563D02*
X011777Y016563D01*
X011508Y016528D02*
X010991Y016528D01*
X010991Y016325D01*
X010794Y016325D02*
X010794Y016896D01*
X010977Y017079D01*
X011217Y016957D02*
X012670Y016957D01*
X012513Y017055D02*
X011246Y017055D01*
X011237Y017154D02*
X012414Y017154D01*
X012316Y017252D02*
X011184Y017252D01*
X010868Y017351D02*
X012262Y017351D01*
X012221Y017449D02*
X010873Y017449D01*
X010971Y017548D02*
X012180Y017548D01*
X012144Y017646D02*
X011070Y017646D01*
X011169Y017745D02*
X012144Y017745D01*
X012144Y017843D02*
X011267Y017843D01*
X011354Y017942D02*
X012144Y017942D01*
X012150Y018040D02*
X011354Y018040D01*
X011354Y018139D02*
X012191Y018139D01*
X012232Y018237D02*
X011354Y018237D01*
X011354Y018336D02*
X012273Y018336D01*
X012341Y018434D02*
X011354Y018434D01*
X011354Y018533D02*
X012440Y018533D01*
X012538Y018631D02*
X011354Y018631D01*
X011354Y018730D02*
X012732Y018730D01*
X013519Y018730D02*
X014805Y018730D01*
X014828Y018631D02*
X013713Y018631D01*
X013811Y018533D02*
X014828Y018533D01*
X014845Y018434D02*
X013910Y018434D01*
X013979Y018336D02*
X014871Y018336D01*
X014898Y018237D02*
X014019Y018237D01*
X014060Y018139D02*
X014952Y018139D01*
X015009Y018040D02*
X014101Y018040D01*
X014107Y017942D02*
X015086Y017942D01*
X015185Y017843D02*
X014107Y017843D01*
X014107Y017745D02*
X015319Y017745D01*
X015509Y017646D02*
X014107Y017646D01*
X014071Y017548D02*
X016401Y017548D01*
X016290Y017646D02*
X016248Y017646D01*
X015891Y017055D02*
X016905Y017055D01*
X016993Y016957D02*
X016129Y016957D01*
X016293Y016858D02*
X017080Y016858D01*
X017167Y016760D02*
X016391Y016760D01*
X016490Y016661D02*
X017254Y016661D01*
X017342Y016563D02*
X016546Y016563D01*
X016587Y016464D02*
X017429Y016464D01*
X017505Y016366D02*
X016628Y016366D01*
X016666Y016267D02*
X017573Y016267D01*
X017641Y016169D02*
X016666Y016169D01*
X016666Y016070D02*
X017709Y016070D01*
X017777Y015972D02*
X016666Y015972D01*
X016662Y015873D02*
X017845Y015873D01*
X017913Y015775D02*
X016621Y015775D01*
X016580Y015676D02*
X017981Y015676D01*
X018049Y015578D02*
X016540Y015578D01*
X016473Y015479D02*
X018114Y015479D01*
X018166Y015381D02*
X016375Y015381D01*
X016276Y015282D02*
X018218Y015282D01*
X018269Y015184D02*
X016089Y015184D01*
X017682Y014494D02*
X018631Y014494D01*
X018668Y014396D02*
X017920Y014396D01*
X018034Y014297D02*
X018706Y014297D01*
X018743Y014199D02*
X018133Y014199D01*
X018226Y014100D02*
X018780Y014100D01*
X018818Y014002D02*
X018267Y014002D01*
X018308Y013903D02*
X018855Y013903D01*
X018892Y013805D02*
X018349Y013805D01*
X018372Y013706D02*
X018930Y013706D01*
X018967Y013608D02*
X018372Y013608D01*
X018372Y013509D02*
X019004Y013509D01*
X019038Y013411D02*
X018372Y013411D01*
X018354Y013312D02*
X019062Y013312D01*
X019086Y013214D02*
X018313Y013214D01*
X018272Y013115D02*
X019111Y013115D01*
X019135Y013017D02*
X018231Y013017D01*
X018145Y012918D02*
X019159Y012918D01*
X019183Y012820D02*
X018046Y012820D01*
X017948Y012721D02*
X019208Y012721D01*
X019232Y012623D02*
X017711Y012623D01*
X012908Y016858D02*
X011136Y016858D01*
X010974Y016760D02*
X011365Y016760D01*
X010597Y016325D02*
X010597Y017428D01*
X010603Y017414D01*
X010597Y017428D02*
X011174Y018004D01*
X011174Y018772D01*
X010630Y019315D01*
X010630Y019678D01*
X010952Y019321D02*
X011280Y019321D01*
X011201Y019419D02*
X011043Y019419D01*
X011084Y019518D02*
X011157Y019518D01*
X011134Y019616D02*
X011110Y019616D01*
X011110Y019715D02*
X011580Y019715D01*
X011580Y019616D02*
X011680Y019616D01*
X011680Y019518D02*
X011580Y019518D01*
X011580Y019419D02*
X011680Y019419D01*
X011680Y019321D02*
X011580Y019321D01*
X011580Y019222D02*
X011680Y019222D01*
X011838Y019222D02*
X013837Y019222D01*
X014055Y019124D02*
X011077Y019124D01*
X011175Y019025D02*
X014242Y019025D01*
X014430Y018927D02*
X011274Y018927D01*
X011354Y018828D02*
X014618Y018828D01*
X013577Y019321D02*
X011981Y019321D01*
X012060Y019419D02*
X013318Y019419D01*
X013058Y019518D02*
X012104Y019518D01*
X012127Y019616D02*
X012749Y019616D01*
X012349Y019715D02*
X011680Y019715D01*
X011423Y019222D02*
X010978Y019222D01*
X011094Y019813D02*
X011149Y019813D01*
X011188Y019912D02*
X011053Y019912D01*
X009630Y019678D02*
X009630Y019335D01*
X009067Y018772D01*
X009067Y017552D01*
X010209Y016410D01*
X010203Y016325D01*
X010400Y016325D02*
X010400Y016758D01*
X010170Y017000D01*
X009270Y016128D02*
X008837Y016128D01*
X009093Y016464D02*
X005432Y016464D01*
X005392Y016563D02*
X008995Y016563D01*
X008896Y016661D02*
X005333Y016661D01*
X005364Y016630D02*
X005088Y016906D01*
X004727Y017056D01*
X004336Y017056D01*
X003976Y016906D01*
X003700Y016630D01*
X003550Y016269D01*
X003550Y015879D01*
X003700Y015518D01*
X003976Y015242D01*
X004336Y015093D01*
X004727Y015093D01*
X005088Y015242D01*
X005364Y015518D01*
X005513Y015879D01*
X005513Y016269D01*
X005364Y016630D01*
X005234Y016760D02*
X008798Y016760D01*
X008699Y016858D02*
X007280Y016858D01*
X007258Y016849D02*
X007619Y016998D01*
X007895Y017274D01*
X008044Y017635D01*
X008044Y018026D01*
X007895Y018386D01*
X007619Y018662D01*
X007258Y018812D01*
X006867Y018812D01*
X006507Y018662D01*
X006231Y018386D01*
X006081Y018026D01*
X006081Y017635D01*
X006231Y017274D01*
X006507Y016998D01*
X006867Y016849D01*
X007258Y016849D01*
X007518Y016957D02*
X008671Y016957D01*
X008671Y017055D02*
X007675Y017055D01*
X007774Y017154D02*
X008671Y017154D01*
X008671Y017252D02*
X007872Y017252D01*
X007926Y017351D02*
X008671Y017351D01*
X008671Y017449D02*
X007967Y017449D01*
X008008Y017548D02*
X008671Y017548D01*
X008671Y017646D02*
X008044Y017646D01*
X008044Y017745D02*
X008671Y017745D01*
X008671Y017843D02*
X008044Y017843D01*
X008044Y017942D02*
X008671Y017942D01*
X008671Y018040D02*
X008038Y018040D01*
X007997Y018139D02*
X008671Y018139D01*
X008671Y018237D02*
X007956Y018237D01*
X007916Y018336D02*
X008671Y018336D01*
X008671Y018434D02*
X007847Y018434D01*
X007748Y018533D02*
X008671Y018533D01*
X008671Y018631D02*
X007650Y018631D01*
X007456Y018730D02*
X008671Y018730D01*
X008671Y018828D02*
X005543Y018828D01*
X005384Y018730D02*
X006669Y018730D01*
X006475Y018631D02*
X005314Y018631D01*
X005314Y018533D02*
X006377Y018533D01*
X006278Y018434D02*
X005298Y018434D01*
X005271Y018336D02*
X006210Y018336D01*
X006169Y018237D02*
X005245Y018237D01*
X005190Y018139D02*
X006128Y018139D01*
X006087Y018040D02*
X005134Y018040D01*
X005056Y017942D02*
X006081Y017942D01*
X006081Y017843D02*
X004958Y017843D01*
X004823Y017745D02*
X006081Y017745D01*
X006081Y017646D02*
X004633Y017646D01*
X004728Y017055D02*
X006450Y017055D01*
X006351Y017154D02*
X003362Y017154D01*
X003461Y017252D02*
X006253Y017252D01*
X006199Y017351D02*
X003559Y017351D01*
X003658Y017449D02*
X006158Y017449D01*
X006117Y017548D02*
X003756Y017548D01*
X003867Y017646D02*
X003895Y017646D01*
X004097Y016957D02*
X003165Y016957D01*
X003264Y017055D02*
X004335Y017055D01*
X003928Y016858D02*
X003067Y016858D01*
X002986Y016760D02*
X003829Y016760D01*
X003731Y016661D02*
X002908Y016661D01*
X002829Y016563D02*
X003672Y016563D01*
X003631Y016464D02*
X002750Y016464D01*
X002672Y016366D02*
X003590Y016366D01*
X003550Y016267D02*
X002593Y016267D01*
X002515Y016169D02*
X003550Y016169D01*
X003550Y016070D02*
X002436Y016070D01*
X002366Y015972D02*
X003550Y015972D01*
X003552Y015873D02*
X002304Y015873D01*
X002242Y015775D02*
X003593Y015775D01*
X003634Y015676D02*
X002180Y015676D01*
X002118Y015578D02*
X003675Y015578D01*
X003739Y015479D02*
X002056Y015479D01*
X001994Y015381D02*
X003837Y015381D01*
X003936Y015282D02*
X001932Y015282D01*
X001870Y015184D02*
X004117Y015184D01*
X004947Y015184D02*
X008372Y015184D01*
X008372Y015282D02*
X005128Y015282D01*
X005226Y015381D02*
X008378Y015381D01*
X008357Y015479D02*
X005325Y015479D01*
X005388Y015578D02*
X008352Y015578D01*
X008352Y015676D02*
X005429Y015676D01*
X005470Y015775D02*
X008352Y015775D01*
X008375Y015873D02*
X005511Y015873D01*
X005513Y015972D02*
X008372Y015972D01*
X008372Y016070D02*
X005513Y016070D01*
X005513Y016169D02*
X008372Y016169D01*
X008372Y016267D02*
X005513Y016267D01*
X005473Y016366D02*
X008418Y016366D01*
X008851Y016961D02*
X009829Y015983D01*
X009849Y015971D01*
X009849Y015774D02*
X009624Y015774D01*
X009270Y016128D01*
X009318Y015826D02*
X009472Y015672D01*
X009322Y015521D01*
X009322Y015637D01*
X008856Y015637D01*
X008856Y015675D01*
X009322Y015675D01*
X009322Y015814D01*
X009318Y015826D01*
X009322Y015775D02*
X009369Y015775D01*
X009322Y015676D02*
X009468Y015676D01*
X009378Y015578D02*
X009322Y015578D01*
X009632Y015577D02*
X009239Y015184D01*
X008837Y015184D01*
X008372Y015085D02*
X001814Y015085D01*
X001766Y014987D02*
X008378Y014987D01*
X008529Y014100D02*
X009482Y014100D01*
X009384Y014002D02*
X008587Y014002D01*
X008587Y013903D02*
X009285Y013903D01*
X009091Y013454D02*
X010203Y014567D01*
X010203Y014829D01*
X010400Y014829D02*
X010400Y014145D01*
X011125Y014593D02*
X011525Y014593D01*
X011525Y014691D02*
X011180Y014691D01*
X011180Y014790D02*
X011525Y014790D01*
X011525Y014888D02*
X011180Y014888D01*
X011180Y014987D02*
X011525Y014987D01*
X010286Y015282D02*
X010107Y015282D01*
X010107Y015381D02*
X010250Y015381D01*
X010250Y015479D02*
X010107Y015479D01*
X009849Y015577D02*
X009632Y015577D01*
X008851Y016961D02*
X008851Y019457D01*
X008630Y019678D01*
X008177Y019518D02*
X007157Y019518D01*
X006876Y019419D02*
X008218Y019419D01*
X008308Y019321D02*
X006594Y019321D01*
X006361Y019222D02*
X008475Y019222D01*
X008671Y019124D02*
X006157Y019124D01*
X005952Y019025D02*
X008671Y019025D01*
X008671Y018927D02*
X005748Y018927D01*
X007439Y019616D02*
X008150Y019616D01*
X008150Y019715D02*
X007842Y019715D01*
X006607Y016957D02*
X004966Y016957D01*
X005136Y016858D02*
X006845Y016858D01*
X007888Y014100D02*
X007991Y014100D01*
X007639Y013706D02*
X007543Y013706D01*
X007543Y013608D02*
X007639Y013608D01*
X008573Y011835D02*
X009214Y011835D01*
X009286Y011736D02*
X008588Y011736D01*
X008600Y011638D02*
X008566Y011638D01*
X008944Y011638D02*
X009867Y011638D01*
X010672Y011933D02*
X011212Y011933D01*
X011216Y011931D02*
X011216Y011931D01*
X011078Y012032D02*
X010770Y012032D01*
X010869Y012130D02*
X010959Y012130D01*
X011061Y012044D02*
X011061Y012044D01*
X010141Y013115D02*
X010041Y013115D01*
X010041Y013214D02*
X010141Y013214D01*
X010141Y013312D02*
X010041Y013312D01*
X009794Y013115D02*
X009360Y013115D01*
X009457Y013214D02*
X009710Y013214D01*
X009664Y013312D02*
X009497Y013312D01*
X008139Y011539D02*
X007893Y011539D01*
X007992Y011441D02*
X008139Y011441D01*
X008139Y011342D02*
X008090Y011342D01*
X010536Y008387D02*
X003243Y008387D01*
X003425Y008289D02*
X010635Y008289D01*
X009141Y007599D02*
X009041Y007599D01*
X009041Y007501D02*
X009141Y007501D01*
X009141Y007402D02*
X009041Y007402D01*
X008663Y007895D02*
X003727Y007895D01*
X003687Y007993D02*
X008708Y007993D01*
X008792Y008092D02*
X003622Y008092D01*
X003524Y008190D02*
X008976Y008190D01*
X002525Y012623D02*
X000896Y012623D01*
X000919Y012721D02*
X002288Y012721D01*
X002181Y012820D02*
X000941Y012820D01*
X000964Y012918D02*
X002083Y012918D01*
X001992Y013017D02*
X000986Y013017D01*
X001009Y013115D02*
X001952Y013115D01*
X001911Y013214D02*
X001038Y013214D01*
X001072Y013312D02*
X001870Y013312D01*
X001849Y013411D02*
X001106Y013411D01*
X001141Y013509D02*
X001849Y013509D01*
X001849Y013608D02*
X001175Y013608D01*
X001210Y013706D02*
X001849Y013706D01*
X001870Y013805D02*
X001244Y013805D01*
X001279Y013903D02*
X001911Y013903D01*
X001951Y014002D02*
X001313Y014002D01*
X001348Y014100D02*
X001992Y014100D01*
X002082Y014199D02*
X001387Y014199D01*
X001434Y014297D02*
X002181Y014297D01*
X002286Y014396D02*
X001482Y014396D01*
X001529Y014494D02*
X002524Y014494D01*
X001667Y011342D02*
X000695Y011342D01*
X000684Y011244D02*
X001568Y011244D01*
X001470Y011145D02*
X000673Y011145D01*
X000664Y011047D02*
X001393Y011047D01*
X001352Y010948D02*
X000661Y010948D01*
X000659Y010850D02*
X001311Y010850D01*
X001270Y010751D02*
X000656Y010751D01*
X000653Y010653D02*
X001258Y010653D01*
D21*
X008319Y011744D03*
X008772Y011430D03*
X009461Y011941D03*
X011174Y012296D03*
X012138Y012847D03*
X010839Y014264D03*
X012756Y015457D03*
X013280Y014953D03*
X013286Y014957D03*
X013280Y014461D03*
X013772Y015465D03*
X014304Y015052D03*
X015563Y014461D03*
X014284Y017138D03*
X012355Y016351D03*
X011508Y016528D03*
X010977Y017079D03*
X010603Y017414D03*
X010170Y017000D03*
X011823Y010721D03*
X013930Y010504D03*
D22*
X010597Y014829D02*
X010597Y015577D01*
M02*
