%
M48
M72
T01C0.0118
T02C0.0374
T03C0.0400
T04C0.0900
T05C0.1063
T06C0.1200
%
T01
X8772Y11430
X8319Y11744
X9461Y11941
X11174Y12296
X12138Y12847
X10839Y14264
X12756Y15457
X13280Y14953
X13286Y14957
X13280Y14461
X13772Y15465
X14304Y15052
X15563Y14461
X14284Y17138
X12355Y16351
X11508Y16528
X10977Y17079
X10603Y17414
X10170Y17000
X11823Y10721
X13930Y10504
T02
X13936Y13957
X13136Y13957
X13536Y15957
T03
X11091Y13454
X10091Y13454
X9091Y13454
X9091Y7754
X11091Y7754
X10630Y19678
X9630Y19678
X8630Y19678
X11630Y19678
T04
X12691Y10504
X7491Y10504
T05
X2830Y7496
X4537Y4917
X7102Y3224
X10147Y2614
X13119Y3257
X15678Y4950
X17371Y7489
X17981Y10541
X17391Y13552
X15685Y16078
X13126Y17830
X10133Y18401
X7063Y17830
X4532Y16074
X2830Y13559
X2240Y10527
T06
X1902Y1981
X18162Y1882
X15878Y18634
X4264Y18634
M30
