G75*
G70*
%OFA0B0*%
%FSLAX24Y24*%
%IPPOS*%
%LPD*%
%AMOC8*
5,1,8,0,0,1.08239X$1,22.5*
%
%ADD10R,0.0433X0.0236*%
%ADD11C,0.1143*%
%ADD12C,0.0680*%
%ADD13C,0.1380*%
%ADD14C,0.0080*%
%ADD15C,0.1280*%
%ADD16C,0.0780*%
%ADD17R,0.0395X0.0192*%
%ADD18R,0.0192X0.0395*%
%ADD19R,0.1320X0.1320*%
%ADD20R,0.0236X0.0433*%
%ADD21C,0.0454*%
%ADD22C,0.0358*%
D10*
G36*
X005274Y004485D02*
X004969Y004180D01*
X004802Y004347D01*
X005107Y004652D01*
X005274Y004485D01*
G37*
G36*
X004272Y005487D02*
X003967Y005182D01*
X003800Y005349D01*
X004105Y005654D01*
X004272Y005487D01*
G37*
X010147Y003322D03*
X010147Y001905D03*
G36*
X003962Y015809D02*
X004267Y015504D01*
X004100Y015337D01*
X003795Y015642D01*
X003962Y015809D01*
G37*
G36*
X004964Y016811D02*
X005269Y016506D01*
X005102Y016339D01*
X004797Y016644D01*
X004964Y016811D01*
G37*
D11*
X004532Y016074D03*
X002830Y013559D03*
X002240Y010527D03*
X002830Y007496D03*
X004537Y004917D03*
X007102Y003224D03*
X010147Y002614D03*
X013119Y003257D03*
X015678Y004950D03*
X017371Y007489D03*
X017981Y010541D03*
X017391Y013552D03*
X015685Y016078D03*
X013126Y017830D03*
X010133Y018401D03*
X007063Y017830D03*
D12*
X009091Y013454D03*
X010091Y013454D03*
X011091Y013454D03*
X011091Y007754D03*
X009091Y007754D03*
D13*
X007491Y010504D03*
X012691Y010504D03*
D14*
X015878Y017904D02*
X015825Y017906D01*
X015772Y017912D01*
X015719Y017921D01*
X015668Y017935D01*
X015617Y017952D01*
X015568Y017973D01*
X015521Y017997D01*
X015475Y018025D01*
X015432Y018056D01*
X015391Y018090D01*
X015352Y018127D01*
X015317Y018167D01*
X015284Y018209D01*
X015255Y018254D01*
X015229Y018300D01*
X015206Y018348D01*
X015187Y018398D01*
X015172Y018449D01*
X015160Y018501D01*
X015152Y018554D01*
X015148Y018607D01*
X015148Y018661D01*
X015152Y018714D01*
X015160Y018767D01*
X015172Y018819D01*
X015187Y018870D01*
X015206Y018920D01*
X015229Y018968D01*
X015255Y019014D01*
X015284Y019059D01*
X015317Y019101D01*
X015352Y019141D01*
X015391Y019178D01*
X015432Y019212D01*
X015475Y019243D01*
X015521Y019271D01*
X015568Y019295D01*
X015617Y019316D01*
X015668Y019333D01*
X015719Y019347D01*
X015772Y019356D01*
X015825Y019362D01*
X015878Y019364D01*
X015931Y019362D01*
X015984Y019356D01*
X016037Y019347D01*
X016088Y019333D01*
X016139Y019316D01*
X016188Y019295D01*
X016235Y019271D01*
X016281Y019243D01*
X016324Y019212D01*
X016365Y019178D01*
X016404Y019141D01*
X016439Y019101D01*
X016472Y019059D01*
X016501Y019014D01*
X016527Y018968D01*
X016550Y018920D01*
X016569Y018870D01*
X016584Y018819D01*
X016596Y018767D01*
X016604Y018714D01*
X016608Y018661D01*
X016608Y018607D01*
X016604Y018554D01*
X016596Y018501D01*
X016584Y018449D01*
X016569Y018398D01*
X016550Y018348D01*
X016527Y018300D01*
X016501Y018254D01*
X016472Y018209D01*
X016439Y018167D01*
X016404Y018127D01*
X016365Y018090D01*
X016324Y018056D01*
X016281Y018025D01*
X016235Y017997D01*
X016188Y017973D01*
X016139Y017952D01*
X016088Y017935D01*
X016037Y017921D01*
X015984Y017912D01*
X015931Y017906D01*
X015878Y017904D01*
X004264Y017904D02*
X004211Y017906D01*
X004158Y017912D01*
X004105Y017921D01*
X004054Y017935D01*
X004003Y017952D01*
X003954Y017973D01*
X003907Y017997D01*
X003861Y018025D01*
X003818Y018056D01*
X003777Y018090D01*
X003738Y018127D01*
X003703Y018167D01*
X003670Y018209D01*
X003641Y018254D01*
X003615Y018300D01*
X003592Y018348D01*
X003573Y018398D01*
X003558Y018449D01*
X003546Y018501D01*
X003538Y018554D01*
X003534Y018607D01*
X003534Y018661D01*
X003538Y018714D01*
X003546Y018767D01*
X003558Y018819D01*
X003573Y018870D01*
X003592Y018920D01*
X003615Y018968D01*
X003641Y019014D01*
X003670Y019059D01*
X003703Y019101D01*
X003738Y019141D01*
X003777Y019178D01*
X003818Y019212D01*
X003861Y019243D01*
X003907Y019271D01*
X003954Y019295D01*
X004003Y019316D01*
X004054Y019333D01*
X004105Y019347D01*
X004158Y019356D01*
X004211Y019362D01*
X004264Y019364D01*
X004317Y019362D01*
X004370Y019356D01*
X004423Y019347D01*
X004474Y019333D01*
X004525Y019316D01*
X004574Y019295D01*
X004621Y019271D01*
X004667Y019243D01*
X004710Y019212D01*
X004751Y019178D01*
X004790Y019141D01*
X004825Y019101D01*
X004858Y019059D01*
X004887Y019014D01*
X004913Y018968D01*
X004936Y018920D01*
X004955Y018870D01*
X004970Y018819D01*
X004982Y018767D01*
X004990Y018714D01*
X004994Y018661D01*
X004994Y018607D01*
X004990Y018554D01*
X004982Y018501D01*
X004970Y018449D01*
X004955Y018398D01*
X004936Y018348D01*
X004913Y018300D01*
X004887Y018254D01*
X004858Y018209D01*
X004825Y018167D01*
X004790Y018127D01*
X004751Y018090D01*
X004710Y018056D01*
X004667Y018025D01*
X004621Y017997D01*
X004574Y017973D01*
X004525Y017952D01*
X004474Y017935D01*
X004423Y017921D01*
X004370Y017912D01*
X004317Y017906D01*
X004264Y017904D01*
X001902Y002711D02*
X001849Y002709D01*
X001796Y002703D01*
X001743Y002694D01*
X001692Y002680D01*
X001641Y002663D01*
X001592Y002642D01*
X001545Y002618D01*
X001499Y002590D01*
X001456Y002559D01*
X001415Y002525D01*
X001376Y002488D01*
X001341Y002448D01*
X001308Y002406D01*
X001279Y002361D01*
X001253Y002315D01*
X001230Y002267D01*
X001211Y002217D01*
X001196Y002166D01*
X001184Y002114D01*
X001176Y002061D01*
X001172Y002008D01*
X001172Y001954D01*
X001176Y001901D01*
X001184Y001848D01*
X001196Y001796D01*
X001211Y001745D01*
X001230Y001695D01*
X001253Y001647D01*
X001279Y001601D01*
X001308Y001556D01*
X001341Y001514D01*
X001376Y001474D01*
X001415Y001437D01*
X001456Y001403D01*
X001499Y001372D01*
X001545Y001344D01*
X001592Y001320D01*
X001641Y001299D01*
X001692Y001282D01*
X001743Y001268D01*
X001796Y001259D01*
X001849Y001253D01*
X001902Y001251D01*
X001955Y001253D01*
X002008Y001259D01*
X002061Y001268D01*
X002112Y001282D01*
X002163Y001299D01*
X002212Y001320D01*
X002259Y001344D01*
X002305Y001372D01*
X002348Y001403D01*
X002389Y001437D01*
X002428Y001474D01*
X002463Y001514D01*
X002496Y001556D01*
X002525Y001601D01*
X002551Y001647D01*
X002574Y001695D01*
X002593Y001745D01*
X002608Y001796D01*
X002620Y001848D01*
X002628Y001901D01*
X002632Y001954D01*
X002632Y002008D01*
X002628Y002061D01*
X002620Y002114D01*
X002608Y002166D01*
X002593Y002217D01*
X002574Y002267D01*
X002551Y002315D01*
X002525Y002361D01*
X002496Y002406D01*
X002463Y002448D01*
X002428Y002488D01*
X002389Y002525D01*
X002348Y002559D01*
X002305Y002590D01*
X002259Y002618D01*
X002212Y002642D01*
X002163Y002663D01*
X002112Y002680D01*
X002061Y002694D01*
X002008Y002703D01*
X001955Y002709D01*
X001902Y002711D01*
X018162Y002612D02*
X018109Y002610D01*
X018056Y002604D01*
X018003Y002595D01*
X017952Y002581D01*
X017901Y002564D01*
X017852Y002543D01*
X017805Y002519D01*
X017759Y002491D01*
X017716Y002460D01*
X017675Y002426D01*
X017636Y002389D01*
X017601Y002349D01*
X017568Y002307D01*
X017539Y002262D01*
X017513Y002216D01*
X017490Y002168D01*
X017471Y002118D01*
X017456Y002067D01*
X017444Y002015D01*
X017436Y001962D01*
X017432Y001909D01*
X017432Y001855D01*
X017436Y001802D01*
X017444Y001749D01*
X017456Y001697D01*
X017471Y001646D01*
X017490Y001596D01*
X017513Y001548D01*
X017539Y001502D01*
X017568Y001457D01*
X017601Y001415D01*
X017636Y001375D01*
X017675Y001338D01*
X017716Y001304D01*
X017759Y001273D01*
X017805Y001245D01*
X017852Y001221D01*
X017901Y001200D01*
X017952Y001183D01*
X018003Y001169D01*
X018056Y001160D01*
X018109Y001154D01*
X018162Y001152D01*
X018215Y001154D01*
X018268Y001160D01*
X018321Y001169D01*
X018372Y001183D01*
X018423Y001200D01*
X018472Y001221D01*
X018519Y001245D01*
X018565Y001273D01*
X018608Y001304D01*
X018649Y001338D01*
X018688Y001375D01*
X018723Y001415D01*
X018756Y001457D01*
X018785Y001502D01*
X018811Y001548D01*
X018834Y001596D01*
X018853Y001646D01*
X018868Y001697D01*
X018880Y001749D01*
X018888Y001802D01*
X018892Y001855D01*
X018892Y001909D01*
X018888Y001962D01*
X018880Y002015D01*
X018868Y002067D01*
X018853Y002118D01*
X018834Y002168D01*
X018811Y002216D01*
X018785Y002262D01*
X018756Y002307D01*
X018723Y002349D01*
X018688Y002389D01*
X018649Y002426D01*
X018608Y002460D01*
X018565Y002491D01*
X018519Y002519D01*
X018472Y002543D01*
X018423Y002564D01*
X018372Y002581D01*
X018321Y002595D01*
X018268Y002604D01*
X018215Y002610D01*
X018162Y002612D01*
D15*
X001902Y001981D03*
X018162Y001882D03*
X015878Y018634D03*
X004264Y018634D03*
D16*
X008630Y019678D03*
X009630Y019678D03*
X010630Y019678D03*
X011630Y019678D03*
D17*
X011088Y011197D03*
X011088Y011000D03*
X011088Y010803D03*
X011088Y010606D03*
X011088Y010409D03*
X011088Y010212D03*
X011088Y010016D03*
X011088Y009819D03*
X009120Y009819D03*
X009120Y010016D03*
X009120Y010212D03*
X009120Y010409D03*
X009120Y010606D03*
X009120Y010803D03*
X009120Y011000D03*
X009120Y011197D03*
D18*
X009415Y011492D03*
X009612Y011492D03*
X009809Y011492D03*
X010005Y011492D03*
X010202Y011492D03*
X010399Y011492D03*
X010596Y011492D03*
X010793Y011492D03*
X010793Y009523D03*
X010596Y009523D03*
X010399Y009523D03*
X010202Y009523D03*
X010005Y009523D03*
X009809Y009523D03*
X009612Y009523D03*
X009415Y009523D03*
D19*
X010104Y010508D03*
D20*
X014970Y004950D03*
X016387Y004950D03*
X016663Y007489D03*
X018080Y007489D03*
X018690Y010541D03*
X017273Y010541D03*
X016682Y013552D03*
X018100Y013552D03*
X016393Y016078D03*
X014976Y016078D03*
X013834Y017830D03*
X012417Y017830D03*
X010842Y018401D03*
X009425Y018401D03*
X007771Y017830D03*
X006354Y017830D03*
X003539Y013559D03*
X002122Y013559D03*
X001531Y010527D03*
X002948Y010527D03*
X003539Y007496D03*
X002122Y007496D03*
X006393Y003224D03*
X007811Y003224D03*
X012411Y003257D03*
X013828Y003257D03*
D21*
X013936Y013957D03*
X013136Y013957D03*
X013536Y015957D03*
D22*
X013772Y015465D03*
X013286Y014957D03*
X013280Y014953D03*
X013280Y014461D03*
X012756Y015457D03*
X012355Y016351D03*
X011508Y016528D03*
X010977Y017079D03*
X010603Y017414D03*
X010170Y017000D03*
X010839Y014264D03*
X012138Y012847D03*
X011174Y012296D03*
X011823Y010721D03*
X013930Y010504D03*
X015563Y014461D03*
X014304Y015052D03*
X014284Y017138D03*
X009461Y011941D03*
X008772Y011430D03*
X008319Y011744D03*
M02*
